<svg width="1363" height="163" viewBox="0 0 1363 163" fill="none" xmlns="http://www.w3.org/2000/svg">
<path d="M0 15C0 6.71573 6.71573 0 15 0H37V163H15C6.71573 163 0 156.284 0 148V15Z" fill="#424242"/>
<rect width="1097" height="163" transform="translate(37)" fill="#F0F0F0"/>
<path d="M98.0391 43.9375V61H94.5234V43.9375H98.0391ZM108.258 43.9375L101.496 52.3633L97.5938 56.5586L96.9609 53.2305L99.5977 49.6211L103.945 43.9375H108.258ZM104.262 61L99.2344 53.1133L101.836 50.9336L108.422 61H104.262ZM116.414 58.1406V52.4922C116.414 52.0859 116.348 51.7383 116.215 51.4492C116.082 51.1523 115.875 50.9219 115.594 50.7578C115.32 50.5938 114.965 50.5117 114.527 50.5117C114.152 50.5117 113.828 50.5781 113.555 50.7109C113.281 50.8359 113.07 51.0195 112.922 51.2617C112.773 51.4961 112.699 51.7734 112.699 52.0938H109.324C109.324 51.5547 109.449 51.043 109.699 50.5586C109.949 50.0742 110.312 49.6484 110.789 49.2812C111.266 48.9062 111.832 48.6133 112.488 48.4023C113.152 48.1914 113.895 48.0859 114.715 48.0859C115.699 48.0859 116.574 48.25 117.34 48.5781C118.105 48.9062 118.707 49.3984 119.145 50.0547C119.59 50.7109 119.812 51.5312 119.812 52.5156V57.9414C119.812 58.6367 119.855 59.207 119.941 59.6523C120.027 60.0898 120.152 60.4727 120.316 60.8008V61H116.906C116.742 60.6562 116.617 60.2266 116.531 59.7109C116.453 59.1875 116.414 58.6641 116.414 58.1406ZM116.859 53.2773L116.883 55.1875H114.996C114.551 55.1875 114.164 55.2383 113.836 55.3398C113.508 55.4414 113.238 55.5859 113.027 55.7734C112.816 55.9531 112.66 56.1641 112.559 56.4062C112.465 56.6484 112.418 56.9141 112.418 57.2031C112.418 57.4922 112.484 57.7539 112.617 57.9883C112.75 58.2148 112.941 58.3945 113.191 58.5273C113.441 58.6523 113.734 58.7148 114.07 58.7148C114.578 58.7148 115.02 58.6133 115.395 58.4102C115.77 58.207 116.059 57.957 116.262 57.6602C116.473 57.3633 116.582 57.082 116.59 56.8164L117.48 58.2461C117.355 58.5664 117.184 58.8984 116.965 59.2422C116.754 59.5859 116.484 59.9102 116.156 60.2148C115.828 60.5117 115.434 60.7578 114.973 60.9531C114.512 61.1406 113.965 61.2344 113.332 61.2344C112.527 61.2344 111.797 61.0742 111.141 60.7539C110.492 60.4258 109.977 59.9766 109.594 59.4062C109.219 58.8281 109.031 58.1719 109.031 57.4375C109.031 56.7734 109.156 56.1836 109.406 55.668C109.656 55.1523 110.023 54.7188 110.508 54.3672C111 54.0078 111.613 53.7383 112.348 53.5586C113.082 53.3711 113.934 53.2773 114.902 53.2773H116.859ZM125.789 51.0859V61H122.414V48.3203H125.59L125.789 51.0859ZM129.609 48.2383L129.551 51.3672C129.387 51.3438 129.188 51.3242 128.953 51.3086C128.727 51.2852 128.52 51.2734 128.332 51.2734C127.855 51.2734 127.441 51.3359 127.09 51.4609C126.746 51.5781 126.457 51.7539 126.223 51.9883C125.996 52.2227 125.824 52.5078 125.707 52.8438C125.598 53.1797 125.535 53.5625 125.52 53.9922L124.84 53.7812C124.84 52.9609 124.922 52.207 125.086 51.5195C125.25 50.8242 125.488 50.2188 125.801 49.7031C126.121 49.1875 126.512 48.7891 126.973 48.5078C127.434 48.2266 127.961 48.0859 128.555 48.0859C128.742 48.0859 128.934 48.1016 129.129 48.1328C129.324 48.1562 129.484 48.1914 129.609 48.2383ZM138.457 58.2344V43H141.855V61H138.797L138.457 58.2344ZM130.441 54.8125V54.5664C130.441 53.5977 130.551 52.7188 130.77 51.9297C130.988 51.1328 131.309 50.4492 131.73 49.8789C132.152 49.3086 132.672 48.8672 133.289 48.5547C133.906 48.2422 134.609 48.0859 135.398 48.0859C136.141 48.0859 136.789 48.2422 137.344 48.5547C137.906 48.8672 138.383 49.3125 138.773 49.8906C139.172 50.4609 139.492 51.1367 139.734 51.918C139.977 52.6914 140.152 53.5391 140.262 54.4609V55C140.152 55.8828 139.977 56.7031 139.734 57.4609C139.492 58.2188 139.172 58.8828 138.773 59.4531C138.383 60.0156 137.906 60.4531 137.344 60.7656C136.781 61.0781 136.125 61.2344 135.375 61.2344C134.586 61.2344 133.883 61.0742 133.266 60.7539C132.656 60.4336 132.141 59.9844 131.719 59.4062C131.305 58.8281 130.988 58.1484 130.77 57.3672C130.551 56.5859 130.441 55.7344 130.441 54.8125ZM133.816 54.5664V54.8125C133.816 55.3359 133.855 55.8242 133.934 56.2773C134.02 56.7305 134.156 57.1328 134.344 57.4844C134.539 57.8281 134.789 58.0977 135.094 58.293C135.406 58.4805 135.785 58.5742 136.23 58.5742C136.809 58.5742 137.285 58.4453 137.66 58.1875C138.035 57.9219 138.32 57.5586 138.516 57.0977C138.719 56.6367 138.836 56.1055 138.867 55.5039V53.9688C138.844 53.4766 138.773 53.0352 138.656 52.6445C138.547 52.2461 138.383 51.9062 138.164 51.625C137.953 51.3438 137.688 51.125 137.367 50.9688C137.055 50.8125 136.684 50.7344 136.254 50.7344C135.816 50.7344 135.441 50.8359 135.129 51.0391C134.816 51.2344 134.562 51.5039 134.367 51.8477C134.18 52.1914 134.039 52.5977 133.945 53.0664C133.859 53.5273 133.816 54.0273 133.816 54.5664ZM148.137 48.3203V61H144.75V48.3203H148.137ZM144.855 46.7852L147.152 43.1758H150.82L147.598 46.7852H144.855ZM157.898 58.1406V52.4922C157.898 52.0859 157.832 51.7383 157.699 51.4492C157.566 51.1523 157.359 50.9219 157.078 50.7578C156.805 50.5938 156.449 50.5117 156.012 50.5117C155.637 50.5117 155.312 50.5781 155.039 50.7109C154.766 50.8359 154.555 51.0195 154.406 51.2617C154.258 51.4961 154.184 51.7734 154.184 52.0938H150.809C150.809 51.5547 150.934 51.043 151.184 50.5586C151.434 50.0742 151.797 49.6484 152.273 49.2812C152.75 48.9062 153.316 48.6133 153.973 48.4023C154.637 48.1914 155.379 48.0859 156.199 48.0859C157.184 48.0859 158.059 48.25 158.824 48.5781C159.59 48.9062 160.191 49.3984 160.629 50.0547C161.074 50.7109 161.297 51.5312 161.297 52.5156V57.9414C161.297 58.6367 161.34 59.207 161.426 59.6523C161.512 60.0898 161.637 60.4727 161.801 60.8008V61H158.391C158.227 60.6562 158.102 60.2266 158.016 59.7109C157.938 59.1875 157.898 58.6641 157.898 58.1406ZM158.344 53.2773L158.367 55.1875H156.48C156.035 55.1875 155.648 55.2383 155.32 55.3398C154.992 55.4414 154.723 55.5859 154.512 55.7734C154.301 55.9531 154.145 56.1641 154.043 56.4062C153.949 56.6484 153.902 56.9141 153.902 57.2031C153.902 57.4922 153.969 57.7539 154.102 57.9883C154.234 58.2148 154.426 58.3945 154.676 58.5273C154.926 58.6523 155.219 58.7148 155.555 58.7148C156.062 58.7148 156.504 58.6133 156.879 58.4102C157.254 58.207 157.543 57.957 157.746 57.6602C157.957 57.3633 158.066 57.082 158.074 56.8164L158.965 58.2461C158.84 58.5664 158.668 58.8984 158.449 59.2422C158.238 59.5859 157.969 59.9102 157.641 60.2148C157.312 60.5117 156.918 60.7578 156.457 60.9531C155.996 61.1406 155.449 61.2344 154.816 61.2344C154.012 61.2344 153.281 61.0742 152.625 60.7539C151.977 60.4258 151.461 59.9766 151.078 59.4062C150.703 58.8281 150.516 58.1719 150.516 57.4375C150.516 56.7734 150.641 56.1836 150.891 55.668C151.141 55.1523 151.508 54.7188 151.992 54.3672C152.484 54.0078 153.098 53.7383 153.832 53.5586C154.566 53.3711 155.418 53.2773 156.387 53.2773H158.344Z" fill="#888888"/>
<path d="M113.18 109.93C113.18 109.398 113.102 108.922 112.945 108.5C112.789 108.062 112.5 107.656 112.078 107.281C111.656 106.906 111.047 106.531 110.25 106.156C109.469 105.766 108.438 105.359 107.156 104.938C105.656 104.438 104.211 103.875 102.82 103.25C101.43 102.609 100.188 101.867 99.0938 101.023C98 100.164 97.1328 99.1641 96.4922 98.0234C95.8516 96.8672 95.5312 95.5234 95.5312 93.9922C95.5312 92.5234 95.8594 91.2031 96.5156 90.0312C97.1719 88.8438 98.0859 87.8359 99.2578 87.0078C100.445 86.1641 101.836 85.5234 103.43 85.0859C105.023 84.6328 106.766 84.4062 108.656 84.4062C111.156 84.4062 113.359 84.8438 115.266 85.7188C117.188 86.5781 118.688 87.8047 119.766 89.3984C120.859 90.9766 121.406 92.8438 121.406 95H113.227C113.227 94.1406 113.047 93.3828 112.688 92.7266C112.344 92.0703 111.82 91.5547 111.117 91.1797C110.414 90.8047 109.531 90.6172 108.469 90.6172C107.438 90.6172 106.57 90.7734 105.867 91.0859C105.164 91.3984 104.633 91.8203 104.273 92.3516C103.914 92.8672 103.734 93.4375 103.734 94.0625C103.734 94.5781 103.875 95.0469 104.156 95.4688C104.453 95.875 104.867 96.2578 105.398 96.6172C105.945 96.9766 106.602 97.3203 107.367 97.6484C108.148 97.9766 109.023 98.2969 109.992 98.6094C111.805 99.1875 113.414 99.8359 114.82 100.555C116.242 101.258 117.438 102.062 118.406 102.969C119.391 103.859 120.133 104.875 120.633 106.016C121.148 107.156 121.406 108.445 121.406 109.883C121.406 111.414 121.109 112.773 120.516 113.961C119.922 115.148 119.07 116.156 117.961 116.984C116.852 117.797 115.523 118.414 113.977 118.836C112.43 119.258 110.703 119.469 108.797 119.469C107.047 119.469 105.32 119.25 103.617 118.812C101.93 118.359 100.398 117.672 99.0234 116.75C97.6484 115.812 96.5469 114.617 95.7188 113.164C94.9062 111.695 94.5 109.953 94.5 107.938H102.75C102.75 108.938 102.883 109.781 103.148 110.469C103.414 111.156 103.805 111.711 104.32 112.133C104.836 112.539 105.469 112.836 106.219 113.023C106.969 113.195 107.828 113.281 108.797 113.281C109.844 113.281 110.688 113.133 111.328 112.836C111.969 112.523 112.438 112.117 112.734 111.617C113.031 111.102 113.18 110.539 113.18 109.93ZM138.633 93.6406V99.125H123.352V93.6406H138.633ZM126.562 87.3359H134.461V110.727C134.461 111.398 134.539 111.922 134.695 112.297C134.852 112.656 135.117 112.914 135.492 113.07C135.883 113.211 136.398 113.281 137.039 113.281C137.492 113.281 137.867 113.273 138.164 113.258C138.461 113.227 138.742 113.188 139.008 113.141V118.789C138.336 119.008 137.633 119.172 136.898 119.281C136.164 119.406 135.383 119.469 134.555 119.469C132.867 119.469 131.422 119.203 130.219 118.672C129.031 118.141 128.125 117.305 127.5 116.164C126.875 115.023 126.562 113.539 126.562 111.711V87.3359ZM149.742 99.9219V119H141.844V93.6406H149.227L149.742 99.9219ZM157.242 93.4531L157.102 100.789C156.789 100.758 156.367 100.719 155.836 100.672C155.305 100.625 154.859 100.602 154.5 100.602C153.578 100.602 152.781 100.711 152.109 100.93C151.453 101.133 150.906 101.445 150.469 101.867C150.047 102.273 149.734 102.789 149.531 103.414C149.344 104.039 149.258 104.766 149.273 105.594L147.844 104.656C147.844 102.953 148.008 101.406 148.336 100.016C148.68 98.6094 149.164 97.3984 149.789 96.3828C150.414 95.3516 151.172 94.5625 152.062 94.0156C152.953 93.4531 153.953 93.1719 155.062 93.1719C155.453 93.1719 155.836 93.1953 156.211 93.2422C156.602 93.2891 156.945 93.3594 157.242 93.4531ZM171.773 119.469C169.711 119.469 167.867 119.148 166.242 118.508C164.617 117.852 163.242 116.953 162.117 115.812C161.008 114.672 160.156 113.359 159.562 111.875C158.984 110.391 158.695 108.82 158.695 107.164V106.273C158.695 104.414 158.953 102.695 159.469 101.117C159.984 99.5234 160.75 98.1328 161.766 96.9453C162.781 95.7578 164.055 94.8359 165.586 94.1797C167.117 93.5078 168.898 93.1719 170.93 93.1719C172.727 93.1719 174.336 93.4609 175.758 94.0391C177.18 94.6172 178.383 95.4453 179.367 96.5234C180.367 97.6016 181.125 98.9062 181.641 100.438C182.172 101.969 182.438 103.688 182.438 105.594V108.805H161.719V103.859H174.727V103.25C174.742 102.406 174.594 101.688 174.281 101.094C173.984 100.5 173.547 100.047 172.969 99.7344C172.391 99.4219 171.688 99.2656 170.859 99.2656C170 99.2656 169.289 99.4531 168.727 99.8281C168.18 100.203 167.75 100.719 167.438 101.375C167.141 102.016 166.93 102.758 166.805 103.602C166.68 104.445 166.617 105.336 166.617 106.273V107.164C166.617 108.102 166.742 108.953 166.992 109.719C167.258 110.484 167.633 111.141 168.117 111.688C168.617 112.219 169.211 112.633 169.898 112.93C170.602 113.227 171.398 113.375 172.289 113.375C173.367 113.375 174.43 113.172 175.477 112.766C176.523 112.359 177.422 111.688 178.172 110.75L181.758 115.016C181.242 115.75 180.508 116.461 179.555 117.148C178.617 117.836 177.492 118.398 176.18 118.836C174.867 119.258 173.398 119.469 171.773 119.469ZM198.82 112.625V102.172C198.82 101.453 198.719 100.836 198.516 100.32C198.312 99.8047 197.992 99.4062 197.555 99.125C197.117 98.8281 196.531 98.6797 195.797 98.6797C195.203 98.6797 194.695 98.7812 194.273 98.9844C193.852 99.1875 193.531 99.4922 193.312 99.8984C193.094 100.305 192.984 100.82 192.984 101.445H185.086C185.086 100.273 185.344 99.1875 185.859 98.1875C186.391 97.1719 187.141 96.2891 188.109 95.5391C189.094 94.7891 190.266 94.2109 191.625 93.8047C193 93.3828 194.531 93.1719 196.219 93.1719C198.234 93.1719 200.031 93.5078 201.609 94.1797C203.203 94.8516 204.461 95.8594 205.383 97.2031C206.305 98.5312 206.766 100.203 206.766 102.219V112.602C206.766 114.258 206.859 115.516 207.047 116.375C207.234 117.219 207.5 117.961 207.844 118.602V119H199.922C199.547 118.219 199.266 117.266 199.078 116.141C198.906 115 198.82 113.828 198.82 112.625ZM199.781 103.508L199.828 107.727H196.336C195.602 107.727 194.977 107.828 194.461 108.031C193.961 108.234 193.555 108.516 193.242 108.875C192.945 109.219 192.727 109.609 192.586 110.047C192.461 110.484 192.398 110.945 192.398 111.43C192.398 111.898 192.508 112.32 192.727 112.695C192.961 113.055 193.273 113.336 193.664 113.539C194.055 113.742 194.492 113.844 194.977 113.844C195.852 113.844 196.594 113.68 197.203 113.352C197.828 113.008 198.305 112.594 198.633 112.109C198.961 111.625 199.125 111.172 199.125 110.75L200.859 113.984C200.547 114.609 200.188 115.242 199.781 115.883C199.391 116.523 198.898 117.117 198.305 117.664C197.727 118.195 197.016 118.633 196.172 118.977C195.328 119.305 194.305 119.469 193.102 119.469C191.539 119.469 190.102 119.148 188.789 118.508C187.492 117.867 186.453 116.977 185.672 115.836C184.891 114.68 184.5 113.352 184.5 111.852C184.5 110.539 184.734 109.367 185.203 108.336C185.688 107.305 186.414 106.43 187.383 105.711C188.352 104.992 189.586 104.445 191.086 104.07C192.586 103.695 194.352 103.508 196.383 103.508H199.781ZM219.117 99.0078V119H211.219V93.6406H218.625L219.117 99.0078ZM218.156 105.453L216.352 105.5C216.352 103.719 216.562 102.078 216.984 100.578C217.406 99.0781 218.031 97.7734 218.859 96.6641C219.688 95.5547 220.703 94.6953 221.906 94.0859C223.125 93.4766 224.531 93.1719 226.125 93.1719C227.234 93.1719 228.242 93.3438 229.148 93.6875C230.055 94.0156 230.836 94.5391 231.492 95.2578C232.148 95.9609 232.648 96.8828 232.992 98.0234C233.352 99.1484 233.531 100.5 233.531 102.078V119H225.633V103.086C225.633 102.008 225.508 101.195 225.258 100.648C225.023 100.102 224.68 99.7344 224.227 99.5469C223.773 99.3594 223.219 99.2656 222.562 99.2656C221.875 99.2656 221.258 99.4219 220.711 99.7344C220.164 100.047 219.695 100.484 219.305 101.047C218.93 101.594 218.641 102.242 218.438 102.992C218.25 103.742 218.156 104.562 218.156 105.453ZM232.641 105.453L230.438 105.5C230.438 103.719 230.633 102.078 231.023 100.578C231.43 99.0781 232.031 97.7734 232.828 96.6641C233.641 95.5547 234.648 94.6953 235.852 94.0859C237.055 93.4766 238.453 93.1719 240.047 93.1719C241.203 93.1719 242.266 93.3438 243.234 93.6875C244.203 94.0312 245.039 94.5859 245.742 95.3516C246.445 96.1172 246.992 97.1328 247.383 98.3984C247.773 99.6484 247.969 101.195 247.969 103.039V119H240.047V103.039C240.047 101.992 239.922 101.203 239.672 100.672C239.438 100.125 239.094 99.7578 238.641 99.5703C238.188 99.3672 237.648 99.2656 237.023 99.2656C236.273 99.2656 235.625 99.4219 235.078 99.7344C234.531 100.047 234.07 100.484 233.695 101.047C233.336 101.594 233.07 102.242 232.898 102.992C232.727 103.742 232.641 104.562 232.641 105.453ZM260.836 83V119H252.914V83H260.836ZM274.055 93.6406V119H266.133V93.6406H274.055ZM265.664 87.1016C265.664 85.9766 266.07 85.0547 266.883 84.3359C267.695 83.6172 268.75 83.2578 270.047 83.2578C271.344 83.2578 272.398 83.6172 273.211 84.3359C274.023 85.0547 274.43 85.9766 274.43 87.1016C274.43 88.2266 274.023 89.1484 273.211 89.8672C272.398 90.5859 271.344 90.9453 270.047 90.9453C268.75 90.9453 267.695 90.5859 266.883 89.8672C266.07 89.1484 265.664 88.2266 265.664 87.1016ZM292.289 93.6406V99.125H277.008V93.6406H292.289ZM280.219 87.3359H288.117V110.727C288.117 111.398 288.195 111.922 288.352 112.297C288.508 112.656 288.773 112.914 289.148 113.07C289.539 113.211 290.055 113.281 290.695 113.281C291.148 113.281 291.523 113.273 291.82 113.258C292.117 113.227 292.398 113.188 292.664 113.141V118.789C291.992 119.008 291.289 119.172 290.555 119.281C289.82 119.406 289.039 119.469 288.211 119.469C286.523 119.469 285.078 119.203 283.875 118.672C282.688 118.141 281.781 117.305 281.156 116.164C280.531 115.023 280.219 113.539 280.219 111.711V87.3359ZM327.164 107.445H335.367C335.258 109.82 334.617 111.914 333.445 113.727C332.273 115.539 330.648 116.953 328.57 117.969C326.508 118.969 324.07 119.469 321.258 119.469C318.977 119.469 316.938 119.086 315.141 118.32C313.359 117.555 311.844 116.453 310.594 115.016C309.359 113.578 308.414 111.836 307.758 109.789C307.117 107.742 306.797 105.438 306.797 102.875V101.023C306.797 98.4609 307.133 96.1562 307.805 94.1094C308.492 92.0469 309.461 90.2969 310.711 88.8594C311.977 87.4062 313.492 86.2969 315.258 85.5312C317.023 84.7656 318.984 84.3828 321.141 84.3828C324.109 84.3828 326.617 84.9141 328.664 85.9766C330.711 87.0391 332.297 88.5 333.422 90.3594C334.547 92.2031 335.211 94.3047 335.414 96.6641H327.211C327.18 95.3828 326.961 94.3125 326.555 93.4531C326.148 92.5781 325.508 91.9219 324.633 91.4844C323.758 91.0469 322.594 90.8281 321.141 90.8281C320.125 90.8281 319.242 91.0156 318.492 91.3906C317.742 91.7656 317.117 92.3594 316.617 93.1719C316.117 93.9844 315.742 95.0391 315.492 96.3359C315.258 97.6172 315.141 99.1641 315.141 100.977V102.875C315.141 104.688 315.25 106.234 315.469 107.516C315.688 108.797 316.039 109.844 316.523 110.656C317.008 111.469 317.633 112.07 318.398 112.461C319.18 112.836 320.133 113.023 321.258 113.023C322.508 113.023 323.562 112.828 324.422 112.438C325.281 112.031 325.945 111.422 326.414 110.609C326.883 109.781 327.133 108.727 327.164 107.445ZM347.227 83V119H339.305V83H347.227ZM351.117 106.578V106.086C351.117 104.227 351.383 102.516 351.914 100.953C352.445 99.375 353.227 98.0078 354.258 96.8516C355.289 95.6953 356.562 94.7969 358.078 94.1562C359.594 93.5 361.344 93.1719 363.328 93.1719C365.328 93.1719 367.086 93.5 368.602 94.1562C370.133 94.7969 371.414 95.6953 372.445 96.8516C373.477 98.0078 374.258 99.375 374.789 100.953C375.32 102.516 375.586 104.227 375.586 106.086V106.578C375.586 108.422 375.32 110.133 374.789 111.711C374.258 113.273 373.477 114.641 372.445 115.812C371.414 116.969 370.141 117.867 368.625 118.508C367.109 119.148 365.359 119.469 363.375 119.469C361.391 119.469 359.633 119.148 358.102 118.508C356.57 117.867 355.289 116.969 354.258 115.812C353.227 114.641 352.445 113.273 351.914 111.711C351.383 110.133 351.117 108.422 351.117 106.578ZM359.016 106.086V106.578C359.016 107.531 359.086 108.422 359.227 109.25C359.367 110.078 359.602 110.805 359.93 111.43C360.258 112.039 360.703 112.516 361.266 112.859C361.828 113.203 362.531 113.375 363.375 113.375C364.203 113.375 364.891 113.203 365.438 112.859C366 112.516 366.445 112.039 366.773 111.43C367.102 110.805 367.336 110.078 367.477 109.25C367.617 108.422 367.688 107.531 367.688 106.578V106.086C367.688 105.164 367.617 104.297 367.477 103.484C367.336 102.656 367.102 101.93 366.773 101.305C366.445 100.664 366 100.164 365.438 99.8047C364.875 99.4453 364.172 99.2656 363.328 99.2656C362.5 99.2656 361.805 99.4453 361.242 99.8047C360.695 100.164 360.258 100.664 359.93 101.305C359.602 101.93 359.367 102.656 359.227 103.484C359.086 104.297 359.016 105.164 359.016 106.086ZM393.914 112.836V93.6406H401.836V119H394.43L393.914 112.836ZM394.664 107.68L396.727 107.633C396.727 109.336 396.523 110.914 396.117 112.367C395.711 113.805 395.109 115.055 394.312 116.117C393.531 117.18 392.562 118.008 391.406 118.602C390.266 119.18 388.945 119.469 387.445 119.469C386.195 119.469 385.047 119.297 384 118.953C382.969 118.594 382.078 118.039 381.328 117.289C380.578 116.523 379.992 115.547 379.57 114.359C379.164 113.156 378.961 111.719 378.961 110.047V93.6406H386.859V110.094C386.859 110.656 386.93 111.141 387.07 111.547C387.211 111.953 387.414 112.297 387.68 112.578C387.945 112.844 388.273 113.047 388.664 113.188C389.07 113.312 389.531 113.375 390.047 113.375C391.234 113.375 392.164 113.125 392.836 112.625C393.508 112.125 393.977 111.445 394.242 110.586C394.523 109.727 394.664 108.758 394.664 107.68ZM420.773 113.188V83H428.719V119H421.594L420.773 113.188ZM405.211 106.625V106.133C405.211 104.211 405.422 102.461 405.844 100.883C406.266 99.2891 406.891 97.9219 407.719 96.7812C408.547 95.625 409.578 94.7344 410.812 94.1094C412.047 93.4844 413.469 93.1719 415.078 93.1719C416.516 93.1719 417.773 93.5078 418.852 94.1797C419.93 94.8359 420.852 95.7578 421.617 96.9453C422.383 98.1328 423.008 99.5234 423.492 101.117C423.977 102.695 424.344 104.398 424.594 106.227V106.812C424.344 108.531 423.977 110.156 423.492 111.688C423.008 113.203 422.383 114.547 421.617 115.719C420.852 116.891 419.922 117.812 418.828 118.484C417.75 119.141 416.484 119.469 415.031 119.469C413.422 119.469 412 119.148 410.766 118.508C409.547 117.867 408.523 116.969 407.695 115.812C406.883 114.656 406.266 113.297 405.844 111.734C405.422 110.172 405.211 108.469 405.211 106.625ZM413.109 106.133V106.625C413.109 107.578 413.172 108.461 413.297 109.273C413.422 110.086 413.633 110.805 413.93 111.43C414.242 112.039 414.648 112.516 415.148 112.859C415.664 113.203 416.297 113.375 417.047 113.375C418.062 113.375 418.898 113.133 419.555 112.648C420.227 112.164 420.719 111.477 421.031 110.586C421.359 109.695 421.5 108.648 421.453 107.445V105.594C421.484 104.562 421.414 103.656 421.242 102.875C421.07 102.078 420.797 101.414 420.422 100.883C420.062 100.352 419.602 99.9531 419.039 99.6875C418.492 99.4062 417.844 99.2656 417.094 99.2656C416.359 99.2656 415.734 99.4375 415.219 99.7812C414.719 100.125 414.312 100.609 414 101.234C413.688 101.844 413.461 102.57 413.32 103.414C413.18 104.242 413.109 105.148 413.109 106.133ZM456.609 119H449.039L449.086 112.672H456.609C458.172 112.672 459.492 112.297 460.57 111.547C461.664 110.797 462.492 109.68 463.055 108.195C463.633 106.695 463.922 104.852 463.922 102.664V101.188C463.922 99.5469 463.758 98.1094 463.43 96.875C463.117 95.625 462.648 94.5859 462.023 93.7578C461.398 92.9141 460.617 92.2812 459.68 91.8594C458.758 91.4375 457.695 91.2266 456.492 91.2266H448.898V84.875H456.492C458.805 84.875 460.922 85.2734 462.844 86.0703C464.781 86.8516 466.453 87.9766 467.859 89.4453C469.281 90.8984 470.375 92.625 471.141 94.625C471.922 96.6094 472.312 98.8125 472.312 101.234V102.664C472.312 105.07 471.922 107.273 471.141 109.273C470.375 111.273 469.289 113 467.883 114.453C466.477 115.906 464.812 117.031 462.891 117.828C460.984 118.609 458.891 119 456.609 119ZM453.75 84.875V119H445.523V84.875H453.75ZM488.508 119.469C486.445 119.469 484.602 119.148 482.977 118.508C481.352 117.852 479.977 116.953 478.852 115.812C477.742 114.672 476.891 113.359 476.297 111.875C475.719 110.391 475.43 108.82 475.43 107.164V106.273C475.43 104.414 475.688 102.695 476.203 101.117C476.719 99.5234 477.484 98.1328 478.5 96.9453C479.516 95.7578 480.789 94.8359 482.32 94.1797C483.852 93.5078 485.633 93.1719 487.664 93.1719C489.461 93.1719 491.07 93.4609 492.492 94.0391C493.914 94.6172 495.117 95.4453 496.102 96.5234C497.102 97.6016 497.859 98.9062 498.375 100.438C498.906 101.969 499.172 103.688 499.172 105.594V108.805H478.453V103.859H491.461V103.25C491.477 102.406 491.328 101.688 491.016 101.094C490.719 100.5 490.281 100.047 489.703 99.7344C489.125 99.4219 488.422 99.2656 487.594 99.2656C486.734 99.2656 486.023 99.4531 485.461 99.8281C484.914 100.203 484.484 100.719 484.172 101.375C483.875 102.016 483.664 102.758 483.539 103.602C483.414 104.445 483.352 105.336 483.352 106.273V107.164C483.352 108.102 483.477 108.953 483.727 109.719C483.992 110.484 484.367 111.141 484.852 111.688C485.352 112.219 485.945 112.633 486.633 112.93C487.336 113.227 488.133 113.375 489.023 113.375C490.102 113.375 491.164 113.172 492.211 112.766C493.258 112.359 494.156 111.688 494.906 110.75L498.492 115.016C497.977 115.75 497.242 116.461 496.289 117.148C495.352 117.836 494.227 118.398 492.914 118.836C491.602 119.258 490.133 119.469 488.508 119.469ZM510.352 98.5156V128.75H502.453V93.6406H509.812L510.352 98.5156ZM525.914 106.016V106.508C525.914 108.352 525.703 110.062 525.281 111.641C524.859 113.219 524.234 114.594 523.406 115.766C522.578 116.938 521.547 117.852 520.312 118.508C519.094 119.148 517.68 119.469 516.07 119.469C514.555 119.469 513.25 119.133 512.156 118.461C511.062 117.789 510.148 116.859 509.414 115.672C508.68 114.484 508.086 113.125 507.633 111.594C507.18 110.062 506.82 108.445 506.555 106.742V106.109C506.82 104.281 507.18 102.586 507.633 101.023C508.086 99.4453 508.68 98.0703 509.414 96.8984C510.148 95.7266 511.055 94.8125 512.133 94.1562C513.227 93.5 514.531 93.1719 516.047 93.1719C517.656 93.1719 519.07 93.4766 520.289 94.0859C521.523 94.6953 522.555 95.5703 523.383 96.7109C524.227 97.8359 524.859 99.1875 525.281 100.766C525.703 102.344 525.914 104.094 525.914 106.016ZM518.016 106.508V106.016C518.016 105.031 517.945 104.133 517.805 103.32C517.664 102.492 517.438 101.773 517.125 101.164C516.828 100.555 516.43 100.086 515.93 99.7578C515.43 99.4297 514.812 99.2656 514.078 99.2656C513.234 99.2656 512.523 99.3984 511.945 99.6641C511.383 99.9141 510.93 100.305 510.586 100.836C510.258 101.352 510.023 102 509.883 102.781C509.758 103.547 509.703 104.445 509.719 105.477V107.398C509.688 108.586 509.805 109.633 510.07 110.539C510.336 111.43 510.797 112.125 511.453 112.625C512.109 113.125 513 113.375 514.125 113.375C514.875 113.375 515.5 113.203 516 112.859C516.5 112.5 516.898 112.008 517.195 111.383C517.492 110.742 517.703 110.008 517.828 109.18C517.953 108.352 518.016 107.461 518.016 106.508ZM537.773 83V119H529.852V83H537.773ZM541.664 106.578V106.086C541.664 104.227 541.93 102.516 542.461 100.953C542.992 99.375 543.773 98.0078 544.805 96.8516C545.836 95.6953 547.109 94.7969 548.625 94.1562C550.141 93.5 551.891 93.1719 553.875 93.1719C555.875 93.1719 557.633 93.5 559.148 94.1562C560.68 94.7969 561.961 95.6953 562.992 96.8516C564.023 98.0078 564.805 99.375 565.336 100.953C565.867 102.516 566.133 104.227 566.133 106.086V106.578C566.133 108.422 565.867 110.133 565.336 111.711C564.805 113.273 564.023 114.641 562.992 115.812C561.961 116.969 560.688 117.867 559.172 118.508C557.656 119.148 555.906 119.469 553.922 119.469C551.938 119.469 550.18 119.148 548.648 118.508C547.117 117.867 545.836 116.969 544.805 115.812C543.773 114.641 542.992 113.273 542.461 111.711C541.93 110.133 541.664 108.422 541.664 106.578ZM549.562 106.086V106.578C549.562 107.531 549.633 108.422 549.773 109.25C549.914 110.078 550.148 110.805 550.477 111.43C550.805 112.039 551.25 112.516 551.812 112.859C552.375 113.203 553.078 113.375 553.922 113.375C554.75 113.375 555.438 113.203 555.984 112.859C556.547 112.516 556.992 112.039 557.32 111.43C557.648 110.805 557.883 110.078 558.023 109.25C558.164 108.422 558.234 107.531 558.234 106.578V106.086C558.234 105.164 558.164 104.297 558.023 103.484C557.883 102.656 557.648 101.93 557.32 101.305C556.992 100.664 556.547 100.164 555.984 99.8047C555.422 99.4453 554.719 99.2656 553.875 99.2656C553.047 99.2656 552.352 99.4453 551.789 99.8047C551.242 100.164 550.805 100.664 550.477 101.305C550.148 101.93 549.914 102.656 549.773 103.484C549.633 104.297 549.562 105.164 549.562 106.086ZM577.055 116.023L583.617 93.6406H592.102L581.906 122.773C581.688 123.414 581.398 124.102 581.039 124.836C580.68 125.586 580.188 126.297 579.562 126.969C578.938 127.641 578.133 128.188 577.148 128.609C576.18 129.031 574.977 129.242 573.539 129.242C572.773 129.242 572.211 129.203 571.852 129.125C571.508 129.062 570.977 128.945 570.258 128.773V123.125C570.461 123.125 570.633 123.125 570.773 123.125C570.93 123.125 571.102 123.125 571.289 123.125C572.133 123.125 572.805 123.039 573.305 122.867C573.82 122.695 574.211 122.445 574.477 122.117C574.758 121.789 574.977 121.391 575.133 120.922L577.055 116.023ZM575.391 93.6406L580.383 111.383L581.25 119.75H575.953L566.93 93.6406H575.391ZM602.133 99.0078V119H594.234V93.6406H601.641L602.133 99.0078ZM601.172 105.453L599.367 105.5C599.367 103.719 599.578 102.078 600 100.578C600.422 99.0781 601.047 97.7734 601.875 96.6641C602.703 95.5547 603.719 94.6953 604.922 94.0859C606.141 93.4766 607.547 93.1719 609.141 93.1719C610.25 93.1719 611.258 93.3438 612.164 93.6875C613.07 94.0156 613.852 94.5391 614.508 95.2578C615.164 95.9609 615.664 96.8828 616.008 98.0234C616.367 99.1484 616.547 100.5 616.547 102.078V119H608.648V103.086C608.648 102.008 608.523 101.195 608.273 100.648C608.039 100.102 607.695 99.7344 607.242 99.5469C606.789 99.3594 606.234 99.2656 605.578 99.2656C604.891 99.2656 604.273 99.4219 603.727 99.7344C603.18 100.047 602.711 100.484 602.32 101.047C601.945 101.594 601.656 102.242 601.453 102.992C601.266 103.742 601.172 104.562 601.172 105.453ZM615.656 105.453L613.453 105.5C613.453 103.719 613.648 102.078 614.039 100.578C614.445 99.0781 615.047 97.7734 615.844 96.6641C616.656 95.5547 617.664 94.6953 618.867 94.0859C620.07 93.4766 621.469 93.1719 623.062 93.1719C624.219 93.1719 625.281 93.3438 626.25 93.6875C627.219 94.0312 628.055 94.5859 628.758 95.3516C629.461 96.1172 630.008 97.1328 630.398 98.3984C630.789 99.6484 630.984 101.195 630.984 103.039V119H623.062V103.039C623.062 101.992 622.938 101.203 622.688 100.672C622.453 100.125 622.109 99.7578 621.656 99.5703C621.203 99.3672 620.664 99.2656 620.039 99.2656C619.289 99.2656 618.641 99.4219 618.094 99.7344C617.547 100.047 617.086 100.484 616.711 101.047C616.352 101.594 616.086 102.242 615.914 102.992C615.742 103.742 615.656 104.562 615.656 105.453ZM647.789 119.469C645.727 119.469 643.883 119.148 642.258 118.508C640.633 117.852 639.258 116.953 638.133 115.812C637.023 114.672 636.172 113.359 635.578 111.875C635 110.391 634.711 108.82 634.711 107.164V106.273C634.711 104.414 634.969 102.695 635.484 101.117C636 99.5234 636.766 98.1328 637.781 96.9453C638.797 95.7578 640.07 94.8359 641.602 94.1797C643.133 93.5078 644.914 93.1719 646.945 93.1719C648.742 93.1719 650.352 93.4609 651.773 94.0391C653.195 94.6172 654.398 95.4453 655.383 96.5234C656.383 97.6016 657.141 98.9062 657.656 100.438C658.188 101.969 658.453 103.688 658.453 105.594V108.805H637.734V103.859H650.742V103.25C650.758 102.406 650.609 101.688 650.297 101.094C650 100.5 649.562 100.047 648.984 99.7344C648.406 99.4219 647.703 99.2656 646.875 99.2656C646.016 99.2656 645.305 99.4531 644.742 99.8281C644.195 100.203 643.766 100.719 643.453 101.375C643.156 102.016 642.945 102.758 642.82 103.602C642.695 104.445 642.633 105.336 642.633 106.273V107.164C642.633 108.102 642.758 108.953 643.008 109.719C643.273 110.484 643.648 111.141 644.133 111.688C644.633 112.219 645.227 112.633 645.914 112.93C646.617 113.227 647.414 113.375 648.305 113.375C649.383 113.375 650.445 113.172 651.492 112.766C652.539 112.359 653.438 111.688 654.188 110.75L657.773 115.016C657.258 115.75 656.523 116.461 655.57 117.148C654.633 117.836 653.508 118.398 652.195 118.836C650.883 119.258 649.414 119.469 647.789 119.469ZM669.422 99.0547V119H661.523V93.6406H668.93L669.422 99.0547ZM668.484 105.453L666.633 105.5C666.633 103.562 666.867 101.836 667.336 100.32C667.805 98.7891 668.469 97.4922 669.328 96.4297C670.188 95.3672 671.211 94.5625 672.398 94.0156C673.602 93.4531 674.938 93.1719 676.406 93.1719C677.578 93.1719 678.648 93.3438 679.617 93.6875C680.602 94.0312 681.445 94.5859 682.148 95.3516C682.867 96.1172 683.414 97.1328 683.789 98.3984C684.18 99.6484 684.375 101.195 684.375 103.039V119H676.43V103.016C676.43 102 676.289 101.227 676.008 100.695C675.727 100.148 675.32 99.7734 674.789 99.5703C674.258 99.3672 673.609 99.2656 672.844 99.2656C672.031 99.2656 671.344 99.4219 670.781 99.7344C670.219 100.047 669.766 100.484 669.422 101.047C669.094 101.594 668.852 102.242 668.695 102.992C668.555 103.742 668.484 104.562 668.484 105.453ZM702.117 93.6406V99.125H686.836V93.6406H702.117ZM690.047 87.3359H697.945V110.727C697.945 111.398 698.023 111.922 698.18 112.297C698.336 112.656 698.602 112.914 698.977 113.07C699.367 113.211 699.883 113.281 700.523 113.281C700.977 113.281 701.352 113.273 701.648 113.258C701.945 113.227 702.227 113.188 702.492 113.141V118.789C701.82 119.008 701.117 119.172 700.383 119.281C699.648 119.406 698.867 119.469 698.039 119.469C696.352 119.469 694.906 119.203 693.703 118.672C692.516 118.141 691.609 117.305 690.984 116.164C690.359 115.023 690.047 113.539 690.047 111.711V87.3359Z" fill="black"/>
<path d="M1134 0H1348C1356.28 0 1363 6.71573 1363 15V148C1363 156.284 1356.28 163 1348 163H1134V0Z" fill="#F65164"/>
<path d="M1212.5 117.5L1212.5 45.5L1284.5 45.5L1284.5 117.5L1212.5 117.5Z" fill="white" fill-opacity="0.01"/>
<path d="M1221.5 81.5125L1221.5 108.5L1275.5 108.5L1275.5 81.5" stroke="white" stroke-width="7.24" stroke-linecap="round" stroke-linejoin="round"/>
<path d="M1262 68L1248.5 54.5L1235 68" stroke="white" stroke-width="7.24" stroke-linecap="round" stroke-linejoin="round"/>
<path d="M1248.49 93.5L1248.49 54.5" stroke="white" stroke-width="7.24" stroke-linecap="round" stroke-linejoin="round"/>
</svg>
