<svg width="1363" height="163" viewBox="0 0 1363 163" fill="none" xmlns="http://www.w3.org/2000/svg">
<path d="M0 15C0 6.71573 6.71573 0 15 0H37V163H15C6.71573 163 0 156.284 0 148V15Z" fill="#424242"/>
<rect width="1097" height="163" transform="translate(37)" fill="#F0F0F0"/>
<path d="M98.0391 43.9375V61H94.5234V43.9375H98.0391ZM108.258 43.9375L101.496 52.3633L97.5938 56.5586L96.9609 53.2305L99.5977 49.6211L103.945 43.9375H108.258ZM104.262 61L99.2344 53.1133L101.836 50.9336L108.422 61H104.262ZM116.414 58.1406V52.4922C116.414 52.0859 116.348 51.7383 116.215 51.4492C116.082 51.1523 115.875 50.9219 115.594 50.7578C115.32 50.5938 114.965 50.5117 114.527 50.5117C114.152 50.5117 113.828 50.5781 113.555 50.7109C113.281 50.8359 113.07 51.0195 112.922 51.2617C112.773 51.4961 112.699 51.7734 112.699 52.0938H109.324C109.324 51.5547 109.449 51.043 109.699 50.5586C109.949 50.0742 110.312 49.6484 110.789 49.2812C111.266 48.9062 111.832 48.6133 112.488 48.4023C113.152 48.1914 113.895 48.0859 114.715 48.0859C115.699 48.0859 116.574 48.25 117.34 48.5781C118.105 48.9062 118.707 49.3984 119.145 50.0547C119.59 50.7109 119.812 51.5312 119.812 52.5156V57.9414C119.812 58.6367 119.855 59.207 119.941 59.6523C120.027 60.0898 120.152 60.4727 120.316 60.8008V61H116.906C116.742 60.6562 116.617 60.2266 116.531 59.7109C116.453 59.1875 116.414 58.6641 116.414 58.1406ZM116.859 53.2773L116.883 55.1875H114.996C114.551 55.1875 114.164 55.2383 113.836 55.3398C113.508 55.4414 113.238 55.5859 113.027 55.7734C112.816 55.9531 112.66 56.1641 112.559 56.4062C112.465 56.6484 112.418 56.9141 112.418 57.2031C112.418 57.4922 112.484 57.7539 112.617 57.9883C112.75 58.2148 112.941 58.3945 113.191 58.5273C113.441 58.6523 113.734 58.7148 114.07 58.7148C114.578 58.7148 115.02 58.6133 115.395 58.4102C115.77 58.207 116.059 57.957 116.262 57.6602C116.473 57.3633 116.582 57.082 116.59 56.8164L117.48 58.2461C117.355 58.5664 117.184 58.8984 116.965 59.2422C116.754 59.5859 116.484 59.9102 116.156 60.2148C115.828 60.5117 115.434 60.7578 114.973 60.9531C114.512 61.1406 113.965 61.2344 113.332 61.2344C112.527 61.2344 111.797 61.0742 111.141 60.7539C110.492 60.4258 109.977 59.9766 109.594 59.4062C109.219 58.8281 109.031 58.1719 109.031 57.4375C109.031 56.7734 109.156 56.1836 109.406 55.668C109.656 55.1523 110.023 54.7188 110.508 54.3672C111 54.0078 111.613 53.7383 112.348 53.5586C113.082 53.3711 113.934 53.2773 114.902 53.2773H116.859ZM125.789 51.0859V61H122.414V48.3203H125.59L125.789 51.0859ZM129.609 48.2383L129.551 51.3672C129.387 51.3438 129.188 51.3242 128.953 51.3086C128.727 51.2852 128.52 51.2734 128.332 51.2734C127.855 51.2734 127.441 51.3359 127.09 51.4609C126.746 51.5781 126.457 51.7539 126.223 51.9883C125.996 52.2227 125.824 52.5078 125.707 52.8438C125.598 53.1797 125.535 53.5625 125.52 53.9922L124.84 53.7812C124.84 52.9609 124.922 52.207 125.086 51.5195C125.25 50.8242 125.488 50.2188 125.801 49.7031C126.121 49.1875 126.512 48.7891 126.973 48.5078C127.434 48.2266 127.961 48.0859 128.555 48.0859C128.742 48.0859 128.934 48.1016 129.129 48.1328C129.324 48.1562 129.484 48.1914 129.609 48.2383ZM138.457 58.2344V43H141.855V61H138.797L138.457 58.2344ZM130.441 54.8125V54.5664C130.441 53.5977 130.551 52.7188 130.77 51.9297C130.988 51.1328 131.309 50.4492 131.73 49.8789C132.152 49.3086 132.672 48.8672 133.289 48.5547C133.906 48.2422 134.609 48.0859 135.398 48.0859C136.141 48.0859 136.789 48.2422 137.344 48.5547C137.906 48.8672 138.383 49.3125 138.773 49.8906C139.172 50.4609 139.492 51.1367 139.734 51.918C139.977 52.6914 140.152 53.5391 140.262 54.4609V55C140.152 55.8828 139.977 56.7031 139.734 57.4609C139.492 58.2188 139.172 58.8828 138.773 59.4531C138.383 60.0156 137.906 60.4531 137.344 60.7656C136.781 61.0781 136.125 61.2344 135.375 61.2344C134.586 61.2344 133.883 61.0742 133.266 60.7539C132.656 60.4336 132.141 59.9844 131.719 59.4062C131.305 58.8281 130.988 58.1484 130.77 57.3672C130.551 56.5859 130.441 55.7344 130.441 54.8125ZM133.816 54.5664V54.8125C133.816 55.3359 133.855 55.8242 133.934 56.2773C134.02 56.7305 134.156 57.1328 134.344 57.4844C134.539 57.8281 134.789 58.0977 135.094 58.293C135.406 58.4805 135.785 58.5742 136.23 58.5742C136.809 58.5742 137.285 58.4453 137.66 58.1875C138.035 57.9219 138.32 57.5586 138.516 57.0977C138.719 56.6367 138.836 56.1055 138.867 55.5039V53.9688C138.844 53.4766 138.773 53.0352 138.656 52.6445C138.547 52.2461 138.383 51.9062 138.164 51.625C137.953 51.3438 137.688 51.125 137.367 50.9688C137.055 50.8125 136.684 50.7344 136.254 50.7344C135.816 50.7344 135.441 50.8359 135.129 51.0391C134.816 51.2344 134.562 51.5039 134.367 51.8477C134.18 52.1914 134.039 52.5977 133.945 53.0664C133.859 53.5273 133.816 54.0273 133.816 54.5664ZM148.137 48.3203V61H144.75V48.3203H148.137ZM144.855 46.7852L147.152 43.1758H150.82L147.598 46.7852H144.855ZM157.898 58.1406V52.4922C157.898 52.0859 157.832 51.7383 157.699 51.4492C157.566 51.1523 157.359 50.9219 157.078 50.7578C156.805 50.5938 156.449 50.5117 156.012 50.5117C155.637 50.5117 155.312 50.5781 155.039 50.7109C154.766 50.8359 154.555 51.0195 154.406 51.2617C154.258 51.4961 154.184 51.7734 154.184 52.0938H150.809C150.809 51.5547 150.934 51.043 151.184 50.5586C151.434 50.0742 151.797 49.6484 152.273 49.2812C152.75 48.9062 153.316 48.6133 153.973 48.4023C154.637 48.1914 155.379 48.0859 156.199 48.0859C157.184 48.0859 158.059 48.25 158.824 48.5781C159.59 48.9062 160.191 49.3984 160.629 50.0547C161.074 50.7109 161.297 51.5312 161.297 52.5156V57.9414C161.297 58.6367 161.34 59.207 161.426 59.6523C161.512 60.0898 161.637 60.4727 161.801 60.8008V61H158.391C158.227 60.6562 158.102 60.2266 158.016 59.7109C157.938 59.1875 157.898 58.6641 157.898 58.1406ZM158.344 53.2773L158.367 55.1875H156.48C156.035 55.1875 155.648 55.2383 155.32 55.3398C154.992 55.4414 154.723 55.5859 154.512 55.7734C154.301 55.9531 154.145 56.1641 154.043 56.4062C153.949 56.6484 153.902 56.9141 153.902 57.2031C153.902 57.4922 153.969 57.7539 154.102 57.9883C154.234 58.2148 154.426 58.3945 154.676 58.5273C154.926 58.6523 155.219 58.7148 155.555 58.7148C156.062 58.7148 156.504 58.6133 156.879 58.4102C157.254 58.207 157.543 57.957 157.746 57.6602C157.957 57.3633 158.066 57.082 158.074 56.8164L158.965 58.2461C158.84 58.5664 158.668 58.8984 158.449 59.2422C158.238 59.5859 157.969 59.9102 157.641 60.2148C157.312 60.5117 156.918 60.7578 156.457 60.9531C155.996 61.1406 155.449 61.2344 154.816 61.2344C154.012 61.2344 153.281 61.0742 152.625 60.7539C151.977 60.4258 151.461 59.9766 151.078 59.4062C150.703 58.8281 150.516 58.1719 150.516 57.4375C150.516 56.7734 150.641 56.1836 150.891 55.668C151.141 55.1523 151.508 54.7188 151.992 54.3672C152.484 54.0078 153.098 53.7383 153.832 53.5586C154.566 53.3711 155.418 53.2773 156.387 53.2773H158.344Z" fill="#888888"/>
<path d="M118.594 98.4219V104.75H101.086V98.4219H118.594ZM103.828 84.875V119H95.6016V84.875H103.828ZM124.125 84.875V119H115.922V84.875H124.125ZM127.992 106.578V106.086C127.992 104.227 128.258 102.516 128.789 100.953C129.32 99.375 130.102 98.0078 131.133 96.8516C132.164 95.6953 133.438 94.7969 134.953 94.1562C136.469 93.5 138.219 93.1719 140.203 93.1719C142.203 93.1719 143.961 93.5 145.477 94.1562C147.008 94.7969 148.289 95.6953 149.32 96.8516C150.352 98.0078 151.133 99.375 151.664 100.953C152.195 102.516 152.461 104.227 152.461 106.086V106.578C152.461 108.422 152.195 110.133 151.664 111.711C151.133 113.273 150.352 114.641 149.32 115.812C148.289 116.969 147.016 117.867 145.5 118.508C143.984 119.148 142.234 119.469 140.25 119.469C138.266 119.469 136.508 119.148 134.977 118.508C133.445 117.867 132.164 116.969 131.133 115.812C130.102 114.641 129.32 113.273 128.789 111.711C128.258 110.133 127.992 108.422 127.992 106.578ZM135.891 106.086V106.578C135.891 107.531 135.961 108.422 136.102 109.25C136.242 110.078 136.477 110.805 136.805 111.43C137.133 112.039 137.578 112.516 138.141 112.859C138.703 113.203 139.406 113.375 140.25 113.375C141.078 113.375 141.766 113.203 142.312 112.859C142.875 112.516 143.32 112.039 143.648 111.43C143.977 110.805 144.211 110.078 144.352 109.25C144.492 108.422 144.562 107.531 144.562 106.578V106.086C144.562 105.164 144.492 104.297 144.352 103.484C144.211 102.656 143.977 101.93 143.648 101.305C143.32 100.664 142.875 100.164 142.312 99.8047C141.75 99.4453 141.047 99.2656 140.203 99.2656C139.375 99.2656 138.68 99.4453 138.117 99.8047C137.57 100.164 137.133 100.664 136.805 101.305C136.477 101.93 136.242 102.656 136.102 103.484C135.961 104.297 135.891 105.164 135.891 106.086ZM163.688 111.453L168.375 93.6406H173.32L171.562 102.57L166.922 119H162.961L163.688 111.453ZM161.836 93.6406L164.742 111.312L165.07 119H160.266L154.266 93.6406H161.836ZM177.492 110.938L180.422 93.6406H187.992L182.039 119H177.234L177.492 110.938ZM173.883 93.6406L178.617 111.406L179.344 119H175.336L170.789 102.617L169.102 93.6406H173.883ZM218.297 84.875V119H210.07V84.875H218.297ZM228.562 84.875V91.2266H200.039V84.875H228.562ZM225.773 106.578V106.086C225.773 104.227 226.039 102.516 226.57 100.953C227.102 99.375 227.883 98.0078 228.914 96.8516C229.945 95.6953 231.219 94.7969 232.734 94.1562C234.25 93.5 236 93.1719 237.984 93.1719C239.984 93.1719 241.742 93.5 243.258 94.1562C244.789 94.7969 246.07 95.6953 247.102 96.8516C248.133 98.0078 248.914 99.375 249.445 100.953C249.977 102.516 250.242 104.227 250.242 106.086V106.578C250.242 108.422 249.977 110.133 249.445 111.711C248.914 113.273 248.133 114.641 247.102 115.812C246.07 116.969 244.797 117.867 243.281 118.508C241.766 119.148 240.016 119.469 238.031 119.469C236.047 119.469 234.289 119.148 232.758 118.508C231.227 117.867 229.945 116.969 228.914 115.812C227.883 114.641 227.102 113.273 226.57 111.711C226.039 110.133 225.773 108.422 225.773 106.578ZM233.672 106.086V106.578C233.672 107.531 233.742 108.422 233.883 109.25C234.023 110.078 234.258 110.805 234.586 111.43C234.914 112.039 235.359 112.516 235.922 112.859C236.484 113.203 237.188 113.375 238.031 113.375C238.859 113.375 239.547 113.203 240.094 112.859C240.656 112.516 241.102 112.039 241.43 111.43C241.758 110.805 241.992 110.078 242.133 109.25C242.273 108.422 242.344 107.531 242.344 106.578V106.086C242.344 105.164 242.273 104.297 242.133 103.484C241.992 102.656 241.758 101.93 241.43 101.305C241.102 100.664 240.656 100.164 240.094 99.8047C239.531 99.4453 238.828 99.2656 237.984 99.2656C237.156 99.2656 236.461 99.4453 235.898 99.8047C235.352 100.164 234.914 100.664 234.586 101.305C234.258 101.93 234.023 102.656 233.883 103.484C233.742 104.297 233.672 105.164 233.672 106.086ZM266.086 84.875H279.516C282.141 84.875 284.422 85.2656 286.359 86.0469C288.297 86.8281 289.789 87.9844 290.836 89.5156C291.898 91.0469 292.43 92.9375 292.43 95.1875C292.43 97.1406 292.125 98.7734 291.516 100.086C290.906 101.398 290.055 102.484 288.961 103.344C287.883 104.188 286.625 104.883 285.188 105.43L282.492 106.953H271.219L271.172 100.602H279.516C280.562 100.602 281.43 100.414 282.117 100.039C282.805 99.6641 283.32 99.1328 283.664 98.4453C284.023 97.7422 284.203 96.9062 284.203 95.9375C284.203 94.9531 284.023 94.1094 283.664 93.4062C283.305 92.7031 282.773 92.1641 282.07 91.7891C281.383 91.4141 280.531 91.2266 279.516 91.2266H274.312V119H266.086V84.875ZM284.766 119L277.219 103.906L285.938 103.859L293.578 118.648V119H284.766ZM311.836 112.836V93.6406H319.758V119H312.352L311.836 112.836ZM312.586 107.68L314.648 107.633C314.648 109.336 314.445 110.914 314.039 112.367C313.633 113.805 313.031 115.055 312.234 116.117C311.453 117.18 310.484 118.008 309.328 118.602C308.188 119.18 306.867 119.469 305.367 119.469C304.117 119.469 302.969 119.297 301.922 118.953C300.891 118.594 300 118.039 299.25 117.289C298.5 116.523 297.914 115.547 297.492 114.359C297.086 113.156 296.883 111.719 296.883 110.047V93.6406H304.781V110.094C304.781 110.656 304.852 111.141 304.992 111.547C305.133 111.953 305.336 112.297 305.602 112.578C305.867 112.844 306.195 113.047 306.586 113.188C306.992 113.312 307.453 113.375 307.969 113.375C309.156 113.375 310.086 113.125 310.758 112.625C311.43 112.125 311.898 111.445 312.164 110.586C312.445 109.727 312.586 108.758 312.586 107.68ZM331.875 99.0547V119H323.977V93.6406H331.383L331.875 99.0547ZM330.938 105.453L329.086 105.5C329.086 103.562 329.32 101.836 329.789 100.32C330.258 98.7891 330.922 97.4922 331.781 96.4297C332.641 95.3672 333.664 94.5625 334.852 94.0156C336.055 93.4531 337.391 93.1719 338.859 93.1719C340.031 93.1719 341.102 93.3438 342.07 93.6875C343.055 94.0312 343.898 94.5859 344.602 95.3516C345.32 96.1172 345.867 97.1328 346.242 98.3984C346.633 99.6484 346.828 101.195 346.828 103.039V119H338.883V103.016C338.883 102 338.742 101.227 338.461 100.695C338.18 100.148 337.773 99.7734 337.242 99.5703C336.711 99.3672 336.062 99.2656 335.297 99.2656C334.484 99.2656 333.797 99.4219 333.234 99.7344C332.672 100.047 332.219 100.484 331.875 101.047C331.547 101.594 331.305 102.242 331.148 102.992C331.008 103.742 330.938 104.562 330.938 105.453ZM363.773 108.195H357.047C357.047 106.82 357.141 105.609 357.328 104.562C357.531 103.5 357.875 102.547 358.359 101.703C358.844 100.859 359.5 100.078 360.328 99.3594C361.062 98.75 361.695 98.1641 362.227 97.6016C362.758 97.0391 363.164 96.4688 363.445 95.8906C363.727 95.3125 363.867 94.6953 363.867 94.0391C363.867 93.2266 363.75 92.5625 363.516 92.0469C363.297 91.5312 362.961 91.1484 362.508 90.8984C362.07 90.6328 361.516 90.5 360.844 90.5C360.297 90.5 359.781 90.6328 359.297 90.8984C358.828 91.1641 358.445 91.5781 358.148 92.1406C357.852 92.6875 357.688 93.4141 357.656 94.3203H349.711C349.758 91.9922 350.273 90.1016 351.258 88.6484C352.258 87.1797 353.586 86.1094 355.242 85.4375C356.914 84.75 358.781 84.4062 360.844 84.4062C363.125 84.4062 365.086 84.7578 366.727 85.4609C368.367 86.1641 369.625 87.2109 370.5 88.6016C371.375 89.9766 371.812 91.6719 371.812 93.6875C371.812 95.0312 371.555 96.2031 371.039 97.2031C370.539 98.1875 369.859 99.1094 369 99.9688C368.156 100.812 367.211 101.719 366.164 102.688C365.258 103.484 364.641 104.297 364.312 105.125C363.984 105.938 363.805 106.961 363.773 108.195ZM356.086 115.32C356.086 114.195 356.492 113.258 357.305 112.508C358.117 111.742 359.172 111.359 360.469 111.359C361.766 111.359 362.82 111.742 363.633 112.508C364.445 113.258 364.852 114.195 364.852 115.32C364.852 116.445 364.445 117.391 363.633 118.156C362.82 118.906 361.766 119.281 360.469 119.281C359.172 119.281 358.117 118.906 357.305 118.156C356.492 117.391 356.086 116.445 356.086 115.32Z" fill="black"/>
<path d="M1134 0H1348C1356.28 0 1363 6.71573 1363 15V148C1363 156.284 1356.28 163 1348 163H1134V0Z" fill="#F65164"/>
<path d="M1260.62 78.8847C1263.81 78.8847 1266.93 79.805 1269.59 81.5293C1272.25 83.2536 1274.32 85.7044 1275.54 88.5718C1276.76 91.4391 1277.08 94.5943 1276.46 97.6383C1275.84 100.682 1274.3 103.478 1272.04 105.673C1269.78 107.868 1266.9 109.362 1263.77 109.968C1260.63 110.573 1257.39 110.262 1254.43 109.075C1251.48 107.887 1248.96 105.876 1247.18 103.295C1245.41 100.714 1244.46 97.6806 1244.46 94.5769C1244.46 90.4151 1246.16 86.4237 1249.19 83.4808C1252.22 80.538 1256.33 78.8847 1260.62 78.8847ZM1260.62 73.6539C1256.36 73.6539 1252.19 74.881 1248.65 77.1801C1245.11 79.4791 1242.35 82.7469 1240.72 86.57C1239.09 90.3932 1238.66 94.6001 1239.49 98.6588C1240.32 102.717 1242.37 106.446 1245.39 109.372C1248.4 112.298 1252.24 114.291 1256.41 115.098C1260.59 115.905 1264.92 115.491 1268.86 113.907C1272.79 112.324 1276.16 109.642 1278.52 106.201C1280.89 102.76 1282.15 98.7151 1282.15 94.5769C1282.15 89.0278 1279.88 83.706 1275.85 79.7821C1271.81 75.8583 1266.33 73.6539 1260.62 73.6539Z" fill="white"/>
<path d="M1274.08 47.5H1220.23C1218.8 47.5 1217.43 48.0511 1216.42 49.0321C1215.41 50.013 1214.85 51.3435 1214.85 52.7307V105.038C1214.85 106.426 1215.41 107.756 1216.42 108.737C1217.43 109.718 1218.8 110.269 1220.23 110.269H1231V105.038H1220.23V68.423H1279.46V52.7307C1279.46 51.3435 1278.89 50.013 1277.88 49.0321C1276.87 48.0511 1275.5 47.5 1274.08 47.5ZM1220.23 63.1922V52.7307H1274.08V63.1922H1220.23Z" fill="white"/>
<path d="M1255.23 86.731V102.423L1268.69 94.5771L1255.23 86.731Z" fill="white"/>
</svg>
