<svg width="1363" height="163" viewBox="0 0 1363 163" fill="none" xmlns="http://www.w3.org/2000/svg">
<path d="M0 15C0 6.71573 6.71573 0 15 0H37V163H15C6.71573 163 0 156.284 0 148V15Z" fill="#424242"/>
<rect width="1097" height="163" transform="translate(37)" fill="#F0F0F0"/>
<path d="M98.0391 43.9375V61H94.5234V43.9375H98.0391ZM108.258 43.9375L101.496 52.3633L97.5938 56.5586L96.9609 53.2305L99.5977 49.6211L103.945 43.9375H108.258ZM104.262 61L99.2344 53.1133L101.836 50.9336L108.422 61H104.262ZM116.414 58.1406V52.4922C116.414 52.0859 116.348 51.7383 116.215 51.4492C116.082 51.1523 115.875 50.9219 115.594 50.7578C115.32 50.5938 114.965 50.5117 114.527 50.5117C114.152 50.5117 113.828 50.5781 113.555 50.7109C113.281 50.8359 113.07 51.0195 112.922 51.2617C112.773 51.4961 112.699 51.7734 112.699 52.0938H109.324C109.324 51.5547 109.449 51.043 109.699 50.5586C109.949 50.0742 110.312 49.6484 110.789 49.2812C111.266 48.9062 111.832 48.6133 112.488 48.4023C113.152 48.1914 113.895 48.0859 114.715 48.0859C115.699 48.0859 116.574 48.25 117.34 48.5781C118.105 48.9062 118.707 49.3984 119.145 50.0547C119.59 50.7109 119.812 51.5312 119.812 52.5156V57.9414C119.812 58.6367 119.855 59.207 119.941 59.6523C120.027 60.0898 120.152 60.4727 120.316 60.8008V61H116.906C116.742 60.6562 116.617 60.2266 116.531 59.7109C116.453 59.1875 116.414 58.6641 116.414 58.1406ZM116.859 53.2773L116.883 55.1875H114.996C114.551 55.1875 114.164 55.2383 113.836 55.3398C113.508 55.4414 113.238 55.5859 113.027 55.7734C112.816 55.9531 112.66 56.1641 112.559 56.4062C112.465 56.6484 112.418 56.9141 112.418 57.2031C112.418 57.4922 112.484 57.7539 112.617 57.9883C112.75 58.2148 112.941 58.3945 113.191 58.5273C113.441 58.6523 113.734 58.7148 114.07 58.7148C114.578 58.7148 115.02 58.6133 115.395 58.4102C115.77 58.207 116.059 57.957 116.262 57.6602C116.473 57.3633 116.582 57.082 116.59 56.8164L117.48 58.2461C117.355 58.5664 117.184 58.8984 116.965 59.2422C116.754 59.5859 116.484 59.9102 116.156 60.2148C115.828 60.5117 115.434 60.7578 114.973 60.9531C114.512 61.1406 113.965 61.2344 113.332 61.2344C112.527 61.2344 111.797 61.0742 111.141 60.7539C110.492 60.4258 109.977 59.9766 109.594 59.4062C109.219 58.8281 109.031 58.1719 109.031 57.4375C109.031 56.7734 109.156 56.1836 109.406 55.668C109.656 55.1523 110.023 54.7188 110.508 54.3672C111 54.0078 111.613 53.7383 112.348 53.5586C113.082 53.3711 113.934 53.2773 114.902 53.2773H116.859ZM125.789 51.0859V61H122.414V48.3203H125.59L125.789 51.0859ZM129.609 48.2383L129.551 51.3672C129.387 51.3438 129.188 51.3242 128.953 51.3086C128.727 51.2852 128.52 51.2734 128.332 51.2734C127.855 51.2734 127.441 51.3359 127.09 51.4609C126.746 51.5781 126.457 51.7539 126.223 51.9883C125.996 52.2227 125.824 52.5078 125.707 52.8438C125.598 53.1797 125.535 53.5625 125.52 53.9922L124.84 53.7812C124.84 52.9609 124.922 52.207 125.086 51.5195C125.25 50.8242 125.488 50.2188 125.801 49.7031C126.121 49.1875 126.512 48.7891 126.973 48.5078C127.434 48.2266 127.961 48.0859 128.555 48.0859C128.742 48.0859 128.934 48.1016 129.129 48.1328C129.324 48.1562 129.484 48.1914 129.609 48.2383ZM138.457 58.2344V43H141.855V61H138.797L138.457 58.2344ZM130.441 54.8125V54.5664C130.441 53.5977 130.551 52.7188 130.77 51.9297C130.988 51.1328 131.309 50.4492 131.73 49.8789C132.152 49.3086 132.672 48.8672 133.289 48.5547C133.906 48.2422 134.609 48.0859 135.398 48.0859C136.141 48.0859 136.789 48.2422 137.344 48.5547C137.906 48.8672 138.383 49.3125 138.773 49.8906C139.172 50.4609 139.492 51.1367 139.734 51.918C139.977 52.6914 140.152 53.5391 140.262 54.4609V55C140.152 55.8828 139.977 56.7031 139.734 57.4609C139.492 58.2188 139.172 58.8828 138.773 59.4531C138.383 60.0156 137.906 60.4531 137.344 60.7656C136.781 61.0781 136.125 61.2344 135.375 61.2344C134.586 61.2344 133.883 61.0742 133.266 60.7539C132.656 60.4336 132.141 59.9844 131.719 59.4062C131.305 58.8281 130.988 58.1484 130.77 57.3672C130.551 56.5859 130.441 55.7344 130.441 54.8125ZM133.816 54.5664V54.8125C133.816 55.3359 133.855 55.8242 133.934 56.2773C134.02 56.7305 134.156 57.1328 134.344 57.4844C134.539 57.8281 134.789 58.0977 135.094 58.293C135.406 58.4805 135.785 58.5742 136.23 58.5742C136.809 58.5742 137.285 58.4453 137.66 58.1875C138.035 57.9219 138.32 57.5586 138.516 57.0977C138.719 56.6367 138.836 56.1055 138.867 55.5039V53.9688C138.844 53.4766 138.773 53.0352 138.656 52.6445C138.547 52.2461 138.383 51.9062 138.164 51.625C137.953 51.3438 137.688 51.125 137.367 50.9688C137.055 50.8125 136.684 50.7344 136.254 50.7344C135.816 50.7344 135.441 50.8359 135.129 51.0391C134.816 51.2344 134.562 51.5039 134.367 51.8477C134.18 52.1914 134.039 52.5977 133.945 53.0664C133.859 53.5273 133.816 54.0273 133.816 54.5664ZM148.137 48.3203V61H144.75V48.3203H148.137ZM144.855 46.7852L147.152 43.1758H150.82L147.598 46.7852H144.855ZM157.898 58.1406V52.4922C157.898 52.0859 157.832 51.7383 157.699 51.4492C157.566 51.1523 157.359 50.9219 157.078 50.7578C156.805 50.5938 156.449 50.5117 156.012 50.5117C155.637 50.5117 155.312 50.5781 155.039 50.7109C154.766 50.8359 154.555 51.0195 154.406 51.2617C154.258 51.4961 154.184 51.7734 154.184 52.0938H150.809C150.809 51.5547 150.934 51.043 151.184 50.5586C151.434 50.0742 151.797 49.6484 152.273 49.2812C152.75 48.9062 153.316 48.6133 153.973 48.4023C154.637 48.1914 155.379 48.0859 156.199 48.0859C157.184 48.0859 158.059 48.25 158.824 48.5781C159.59 48.9062 160.191 49.3984 160.629 50.0547C161.074 50.7109 161.297 51.5312 161.297 52.5156V57.9414C161.297 58.6367 161.34 59.207 161.426 59.6523C161.512 60.0898 161.637 60.4727 161.801 60.8008V61H158.391C158.227 60.6562 158.102 60.2266 158.016 59.7109C157.938 59.1875 157.898 58.6641 157.898 58.1406ZM158.344 53.2773L158.367 55.1875H156.48C156.035 55.1875 155.648 55.2383 155.32 55.3398C154.992 55.4414 154.723 55.5859 154.512 55.7734C154.301 55.9531 154.145 56.1641 154.043 56.4062C153.949 56.6484 153.902 56.9141 153.902 57.2031C153.902 57.4922 153.969 57.7539 154.102 57.9883C154.234 58.2148 154.426 58.3945 154.676 58.5273C154.926 58.6523 155.219 58.7148 155.555 58.7148C156.062 58.7148 156.504 58.6133 156.879 58.4102C157.254 58.207 157.543 57.957 157.746 57.6602C157.957 57.3633 158.066 57.082 158.074 56.8164L158.965 58.2461C158.84 58.5664 158.668 58.8984 158.449 59.2422C158.238 59.5859 157.969 59.9102 157.641 60.2148C157.312 60.5117 156.918 60.7578 156.457 60.9531C155.996 61.1406 155.449 61.2344 154.816 61.2344C154.012 61.2344 153.281 61.0742 152.625 60.7539C151.977 60.4258 151.461 59.9766 151.078 59.4062C150.703 58.8281 150.516 58.1719 150.516 57.4375C150.516 56.7734 150.641 56.1836 150.891 55.668C151.141 55.1523 151.508 54.7188 151.992 54.3672C152.484 54.0078 153.098 53.7383 153.832 53.5586C154.566 53.3711 155.418 53.2773 156.387 53.2773H158.344Z" fill="#888888"/>
<path d="M106.688 119H99.1172L99.1641 112.672H106.688C108.25 112.672 109.57 112.297 110.648 111.547C111.742 110.797 112.57 109.68 113.133 108.195C113.711 106.695 114 104.852 114 102.664V101.188C114 99.5469 113.836 98.1094 113.508 96.875C113.195 95.625 112.727 94.5859 112.102 93.7578C111.477 92.9141 110.695 92.2812 109.758 91.8594C108.836 91.4375 107.773 91.2266 106.57 91.2266H98.9766V84.875H106.57C108.883 84.875 111 85.2734 112.922 86.0703C114.859 86.8516 116.531 87.9766 117.938 89.4453C119.359 90.8984 120.453 92.625 121.219 94.625C122 96.6094 122.391 98.8125 122.391 101.234V102.664C122.391 105.07 122 107.273 121.219 109.273C120.453 111.273 119.367 113 117.961 114.453C116.555 115.906 114.891 117.031 112.969 117.828C111.062 118.609 108.969 119 106.688 119ZM103.828 84.875V119H95.6016V84.875H103.828ZM139.477 112.625V102.172C139.477 101.453 139.375 100.836 139.172 100.32C138.969 99.8047 138.648 99.4062 138.211 99.125C137.773 98.8281 137.188 98.6797 136.453 98.6797C135.859 98.6797 135.352 98.7812 134.93 98.9844C134.508 99.1875 134.188 99.4922 133.969 99.8984C133.75 100.305 133.641 100.82 133.641 101.445H125.742C125.742 100.273 126 99.1875 126.516 98.1875C127.047 97.1719 127.797 96.2891 128.766 95.5391C129.75 94.7891 130.922 94.2109 132.281 93.8047C133.656 93.3828 135.188 93.1719 136.875 93.1719C138.891 93.1719 140.688 93.5078 142.266 94.1797C143.859 94.8516 145.117 95.8594 146.039 97.2031C146.961 98.5312 147.422 100.203 147.422 102.219V112.602C147.422 114.258 147.516 115.516 147.703 116.375C147.891 117.219 148.156 117.961 148.5 118.602V119H140.578C140.203 118.219 139.922 117.266 139.734 116.141C139.562 115 139.477 113.828 139.477 112.625ZM140.438 103.508L140.484 107.727H136.992C136.258 107.727 135.633 107.828 135.117 108.031C134.617 108.234 134.211 108.516 133.898 108.875C133.602 109.219 133.383 109.609 133.242 110.047C133.117 110.484 133.055 110.945 133.055 111.43C133.055 111.898 133.164 112.32 133.383 112.695C133.617 113.055 133.93 113.336 134.32 113.539C134.711 113.742 135.148 113.844 135.633 113.844C136.508 113.844 137.25 113.68 137.859 113.352C138.484 113.008 138.961 112.594 139.289 112.109C139.617 111.625 139.781 111.172 139.781 110.75L141.516 113.984C141.203 114.609 140.844 115.242 140.438 115.883C140.047 116.523 139.555 117.117 138.961 117.664C138.383 118.195 137.672 118.633 136.828 118.977C135.984 119.305 134.961 119.469 133.758 119.469C132.195 119.469 130.758 119.148 129.445 118.508C128.148 117.867 127.109 116.977 126.328 115.836C125.547 114.68 125.156 113.352 125.156 111.852C125.156 110.539 125.391 109.367 125.859 108.336C126.344 107.305 127.07 106.43 128.039 105.711C129.008 104.992 130.242 104.445 131.742 104.07C133.242 103.695 135.008 103.508 137.039 103.508H140.438ZM165.164 93.6406V99.125H149.883V93.6406H165.164ZM153.094 87.3359H160.992V110.727C160.992 111.398 161.07 111.922 161.227 112.297C161.383 112.656 161.648 112.914 162.023 113.07C162.414 113.211 162.93 113.281 163.57 113.281C164.023 113.281 164.398 113.273 164.695 113.258C164.992 113.227 165.273 113.188 165.539 113.141V118.789C164.867 119.008 164.164 119.172 163.43 119.281C162.695 119.406 161.914 119.469 161.086 119.469C159.398 119.469 157.953 119.203 156.75 118.672C155.562 118.141 154.656 117.305 154.031 116.164C153.406 115.023 153.094 113.539 153.094 111.711V87.3359ZM181.477 112.625V102.172C181.477 101.453 181.375 100.836 181.172 100.32C180.969 99.8047 180.648 99.4062 180.211 99.125C179.773 98.8281 179.188 98.6797 178.453 98.6797C177.859 98.6797 177.352 98.7812 176.93 98.9844C176.508 99.1875 176.188 99.4922 175.969 99.8984C175.75 100.305 175.641 100.82 175.641 101.445H167.742C167.742 100.273 168 99.1875 168.516 98.1875C169.047 97.1719 169.797 96.2891 170.766 95.5391C171.75 94.7891 172.922 94.2109 174.281 93.8047C175.656 93.3828 177.188 93.1719 178.875 93.1719C180.891 93.1719 182.688 93.5078 184.266 94.1797C185.859 94.8516 187.117 95.8594 188.039 97.2031C188.961 98.5312 189.422 100.203 189.422 102.219V112.602C189.422 114.258 189.516 115.516 189.703 116.375C189.891 117.219 190.156 117.961 190.5 118.602V119H182.578C182.203 118.219 181.922 117.266 181.734 116.141C181.562 115 181.477 113.828 181.477 112.625ZM182.438 103.508L182.484 107.727H178.992C178.258 107.727 177.633 107.828 177.117 108.031C176.617 108.234 176.211 108.516 175.898 108.875C175.602 109.219 175.383 109.609 175.242 110.047C175.117 110.484 175.055 110.945 175.055 111.43C175.055 111.898 175.164 112.32 175.383 112.695C175.617 113.055 175.93 113.336 176.32 113.539C176.711 113.742 177.148 113.844 177.633 113.844C178.508 113.844 179.25 113.68 179.859 113.352C180.484 113.008 180.961 112.594 181.289 112.109C181.617 111.625 181.781 111.172 181.781 110.75L183.516 113.984C183.203 114.609 182.844 115.242 182.438 115.883C182.047 116.523 181.555 117.117 180.961 117.664C180.383 118.195 179.672 118.633 178.828 118.977C177.984 119.305 176.961 119.469 175.758 119.469C174.195 119.469 172.758 119.148 171.445 118.508C170.148 117.867 169.109 116.977 168.328 115.836C167.547 114.68 167.156 113.352 167.156 111.852C167.156 110.539 167.391 109.367 167.859 108.336C168.344 107.305 169.07 106.43 170.039 105.711C171.008 104.992 172.242 104.445 173.742 104.07C175.242 103.695 177.008 103.508 179.039 103.508H182.438ZM214.008 115.906L220.805 84.875H224.859L227.062 87.5234L219.82 119H215.344L214.008 115.906ZM212.203 84.875L217.945 116.141L216.469 119H211.289L204.047 84.875H212.203ZM230.789 115.977L236.484 84.875H244.617L237.375 119H232.219L230.789 115.977ZM227.789 84.875L234.75 116.094L233.344 119H228.867L221.461 87.4766L223.758 84.875H227.789ZM259.852 112.625V102.172C259.852 101.453 259.75 100.836 259.547 100.32C259.344 99.8047 259.023 99.4062 258.586 99.125C258.148 98.8281 257.562 98.6797 256.828 98.6797C256.234 98.6797 255.727 98.7812 255.305 98.9844C254.883 99.1875 254.562 99.4922 254.344 99.8984C254.125 100.305 254.016 100.82 254.016 101.445H246.117C246.117 100.273 246.375 99.1875 246.891 98.1875C247.422 97.1719 248.172 96.2891 249.141 95.5391C250.125 94.7891 251.297 94.2109 252.656 93.8047C254.031 93.3828 255.562 93.1719 257.25 93.1719C259.266 93.1719 261.062 93.5078 262.641 94.1797C264.234 94.8516 265.492 95.8594 266.414 97.2031C267.336 98.5312 267.797 100.203 267.797 102.219V112.602C267.797 114.258 267.891 115.516 268.078 116.375C268.266 117.219 268.531 117.961 268.875 118.602V119H260.953C260.578 118.219 260.297 117.266 260.109 116.141C259.938 115 259.852 113.828 259.852 112.625ZM260.812 103.508L260.859 107.727H257.367C256.633 107.727 256.008 107.828 255.492 108.031C254.992 108.234 254.586 108.516 254.273 108.875C253.977 109.219 253.758 109.609 253.617 110.047C253.492 110.484 253.43 110.945 253.43 111.43C253.43 111.898 253.539 112.32 253.758 112.695C253.992 113.055 254.305 113.336 254.695 113.539C255.086 113.742 255.523 113.844 256.008 113.844C256.883 113.844 257.625 113.68 258.234 113.352C258.859 113.008 259.336 112.594 259.664 112.109C259.992 111.625 260.156 111.172 260.156 110.75L261.891 113.984C261.578 114.609 261.219 115.242 260.812 115.883C260.422 116.523 259.93 117.117 259.336 117.664C258.758 118.195 258.047 118.633 257.203 118.977C256.359 119.305 255.336 119.469 254.133 119.469C252.57 119.469 251.133 119.148 249.82 118.508C248.523 117.867 247.484 116.977 246.703 115.836C245.922 114.68 245.531 113.352 245.531 111.852C245.531 110.539 245.766 109.367 246.234 108.336C246.719 107.305 247.445 106.43 248.414 105.711C249.383 104.992 250.617 104.445 252.117 104.07C253.617 103.695 255.383 103.508 257.414 103.508H260.812ZM280.148 99.9219V119H272.25V93.6406H279.633L280.148 99.9219ZM287.648 93.4531L287.508 100.789C287.195 100.758 286.773 100.719 286.242 100.672C285.711 100.625 285.266 100.602 284.906 100.602C283.984 100.602 283.188 100.711 282.516 100.93C281.859 101.133 281.312 101.445 280.875 101.867C280.453 102.273 280.141 102.789 279.938 103.414C279.75 104.039 279.664 104.766 279.68 105.594L278.25 104.656C278.25 102.953 278.414 101.406 278.742 100.016C279.086 98.6094 279.57 97.3984 280.195 96.3828C280.82 95.3516 281.578 94.5625 282.469 94.0156C283.359 93.4531 284.359 93.1719 285.469 93.1719C285.859 93.1719 286.242 93.1953 286.617 93.2422C287.008 93.2891 287.352 93.3594 287.648 93.4531ZM302.18 119.469C300.117 119.469 298.273 119.148 296.648 118.508C295.023 117.852 293.648 116.953 292.523 115.812C291.414 114.672 290.562 113.359 289.969 111.875C289.391 110.391 289.102 108.82 289.102 107.164V106.273C289.102 104.414 289.359 102.695 289.875 101.117C290.391 99.5234 291.156 98.1328 292.172 96.9453C293.188 95.7578 294.461 94.8359 295.992 94.1797C297.523 93.5078 299.305 93.1719 301.336 93.1719C303.133 93.1719 304.742 93.4609 306.164 94.0391C307.586 94.6172 308.789 95.4453 309.773 96.5234C310.773 97.6016 311.531 98.9062 312.047 100.438C312.578 101.969 312.844 103.688 312.844 105.594V108.805H292.125V103.859H305.133V103.25C305.148 102.406 305 101.688 304.688 101.094C304.391 100.5 303.953 100.047 303.375 99.7344C302.797 99.4219 302.094 99.2656 301.266 99.2656C300.406 99.2656 299.695 99.4531 299.133 99.8281C298.586 100.203 298.156 100.719 297.844 101.375C297.547 102.016 297.336 102.758 297.211 103.602C297.086 104.445 297.023 105.336 297.023 106.273V107.164C297.023 108.102 297.148 108.953 297.398 109.719C297.664 110.484 298.039 111.141 298.523 111.688C299.023 112.219 299.617 112.633 300.305 112.93C301.008 113.227 301.805 113.375 302.695 113.375C303.773 113.375 304.836 113.172 305.883 112.766C306.93 112.359 307.828 111.688 308.578 110.75L312.164 115.016C311.648 115.75 310.914 116.461 309.961 117.148C309.023 117.836 307.898 118.398 306.586 118.836C305.273 119.258 303.805 119.469 302.18 119.469ZM323.789 83V119H315.891V83H323.789ZM322.852 105.453L321 105.5C321 103.719 321.219 102.078 321.656 100.578C322.094 99.0781 322.719 97.7734 323.531 96.6641C324.344 95.5547 325.32 94.6953 326.461 94.0859C327.602 93.4766 328.867 93.1719 330.258 93.1719C331.508 93.1719 332.648 93.3516 333.68 93.7109C334.727 94.0703 335.625 94.6484 336.375 95.4453C337.141 96.2422 337.727 97.2812 338.133 98.5625C338.555 99.8438 338.766 101.406 338.766 103.25V119H330.82V103.203C330.82 102.172 330.672 101.375 330.375 100.812C330.094 100.234 329.688 99.8359 329.156 99.6172C328.625 99.3828 327.977 99.2656 327.211 99.2656C326.289 99.2656 325.539 99.4219 324.961 99.7344C324.383 100.047 323.938 100.484 323.625 101.047C323.328 101.594 323.125 102.242 323.016 102.992C322.906 103.742 322.852 104.562 322.852 105.453ZM342.164 106.578V106.086C342.164 104.227 342.43 102.516 342.961 100.953C343.492 99.375 344.273 98.0078 345.305 96.8516C346.336 95.6953 347.609 94.7969 349.125 94.1562C350.641 93.5 352.391 93.1719 354.375 93.1719C356.375 93.1719 358.133 93.5 359.648 94.1562C361.18 94.7969 362.461 95.6953 363.492 96.8516C364.523 98.0078 365.305 99.375 365.836 100.953C366.367 102.516 366.633 104.227 366.633 106.086V106.578C366.633 108.422 366.367 110.133 365.836 111.711C365.305 113.273 364.523 114.641 363.492 115.812C362.461 116.969 361.188 117.867 359.672 118.508C358.156 119.148 356.406 119.469 354.422 119.469C352.438 119.469 350.68 119.148 349.148 118.508C347.617 117.867 346.336 116.969 345.305 115.812C344.273 114.641 343.492 113.273 342.961 111.711C342.43 110.133 342.164 108.422 342.164 106.578ZM350.062 106.086V106.578C350.062 107.531 350.133 108.422 350.273 109.25C350.414 110.078 350.648 110.805 350.977 111.43C351.305 112.039 351.75 112.516 352.312 112.859C352.875 113.203 353.578 113.375 354.422 113.375C355.25 113.375 355.938 113.203 356.484 112.859C357.047 112.516 357.492 112.039 357.82 111.43C358.148 110.805 358.383 110.078 358.523 109.25C358.664 108.422 358.734 107.531 358.734 106.578V106.086C358.734 105.164 358.664 104.297 358.523 103.484C358.383 102.656 358.148 101.93 357.82 101.305C357.492 100.664 357.047 100.164 356.484 99.8047C355.922 99.4453 355.219 99.2656 354.375 99.2656C353.547 99.2656 352.852 99.4453 352.289 99.8047C351.742 100.164 351.305 100.664 350.977 101.305C350.648 101.93 350.414 102.656 350.273 103.484C350.133 104.297 350.062 105.164 350.062 106.086ZM384.961 112.836V93.6406H392.883V119H385.477L384.961 112.836ZM385.711 107.68L387.773 107.633C387.773 109.336 387.57 110.914 387.164 112.367C386.758 113.805 386.156 115.055 385.359 116.117C384.578 117.18 383.609 118.008 382.453 118.602C381.312 119.18 379.992 119.469 378.492 119.469C377.242 119.469 376.094 119.297 375.047 118.953C374.016 118.594 373.125 118.039 372.375 117.289C371.625 116.523 371.039 115.547 370.617 114.359C370.211 113.156 370.008 111.719 370.008 110.047V93.6406H377.906V110.094C377.906 110.656 377.977 111.141 378.117 111.547C378.258 111.953 378.461 112.297 378.727 112.578C378.992 112.844 379.32 113.047 379.711 113.188C380.117 113.312 380.578 113.375 381.094 113.375C382.281 113.375 383.211 113.125 383.883 112.625C384.555 112.125 385.023 111.445 385.289 110.586C385.57 109.727 385.711 108.758 385.711 107.68ZM410.531 111.875C410.531 111.438 410.383 111.062 410.086 110.75C409.805 110.422 409.305 110.125 408.586 109.859C407.867 109.578 406.859 109.297 405.562 109.016C404.328 108.75 403.164 108.398 402.07 107.961C400.992 107.523 400.047 106.992 399.234 106.367C398.422 105.742 397.781 105 397.312 104.141C396.859 103.281 396.633 102.297 396.633 101.188C396.633 100.109 396.859 99.0938 397.312 98.1406C397.781 97.1719 398.461 96.3203 399.352 95.5859C400.258 94.8359 401.359 94.25 402.656 93.8281C403.953 93.3906 405.43 93.1719 407.086 93.1719C409.367 93.1719 411.336 93.5234 412.992 94.2266C414.648 94.9141 415.922 95.8828 416.812 97.1328C417.719 98.3672 418.172 99.7969 418.172 101.422H410.273C410.273 100.781 410.164 100.234 409.945 99.7812C409.742 99.3281 409.406 98.9844 408.938 98.75C408.469 98.5 407.844 98.375 407.062 98.375C406.516 98.375 406.016 98.4766 405.562 98.6797C405.125 98.8828 404.773 99.1641 404.508 99.5234C404.242 99.8828 404.109 100.305 404.109 100.789C404.109 101.133 404.188 101.445 404.344 101.727C404.516 101.992 404.773 102.242 405.117 102.477C405.461 102.695 405.898 102.898 406.43 103.086C406.961 103.258 407.602 103.414 408.352 103.555C410.055 103.867 411.648 104.312 413.133 104.891C414.617 105.469 415.82 106.289 416.742 107.352C417.68 108.414 418.148 109.844 418.148 111.641C418.148 112.766 417.891 113.805 417.375 114.758C416.859 115.695 416.117 116.523 415.148 117.242C414.18 117.945 413.016 118.492 411.656 118.883C410.297 119.273 408.766 119.469 407.062 119.469C404.641 119.469 402.594 119.039 400.922 118.18C399.25 117.305 397.984 116.211 397.125 114.898C396.281 113.57 395.859 112.227 395.859 110.867H403.219C403.25 111.648 403.438 112.289 403.781 112.789C404.141 113.289 404.617 113.656 405.211 113.891C405.805 114.125 406.492 114.242 407.273 114.242C407.992 114.242 408.586 114.141 409.055 113.938C409.539 113.734 409.906 113.461 410.156 113.117C410.406 112.758 410.531 112.344 410.531 111.875ZM434.133 119.469C432.07 119.469 430.227 119.148 428.602 118.508C426.977 117.852 425.602 116.953 424.477 115.812C423.367 114.672 422.516 113.359 421.922 111.875C421.344 110.391 421.055 108.82 421.055 107.164V106.273C421.055 104.414 421.312 102.695 421.828 101.117C422.344 99.5234 423.109 98.1328 424.125 96.9453C425.141 95.7578 426.414 94.8359 427.945 94.1797C429.477 93.5078 431.258 93.1719 433.289 93.1719C435.086 93.1719 436.695 93.4609 438.117 94.0391C439.539 94.6172 440.742 95.4453 441.727 96.5234C442.727 97.6016 443.484 98.9062 444 100.438C444.531 101.969 444.797 103.688 444.797 105.594V108.805H424.078V103.859H437.086V103.25C437.102 102.406 436.953 101.688 436.641 101.094C436.344 100.5 435.906 100.047 435.328 99.7344C434.75 99.4219 434.047 99.2656 433.219 99.2656C432.359 99.2656 431.648 99.4531 431.086 99.8281C430.539 100.203 430.109 100.719 429.797 101.375C429.5 102.016 429.289 102.758 429.164 103.602C429.039 104.445 428.977 105.336 428.977 106.273V107.164C428.977 108.102 429.102 108.953 429.352 109.719C429.617 110.484 429.992 111.141 430.477 111.688C430.977 112.219 431.57 112.633 432.258 112.93C432.961 113.227 433.758 113.375 434.648 113.375C435.727 113.375 436.789 113.172 437.836 112.766C438.883 112.359 439.781 111.688 440.531 110.75L444.117 115.016C443.602 115.75 442.867 116.461 441.914 117.148C440.977 117.836 439.852 118.398 438.539 118.836C437.227 119.258 435.758 119.469 434.133 119.469ZM477.914 109.93C477.914 109.398 477.836 108.922 477.68 108.5C477.523 108.062 477.234 107.656 476.812 107.281C476.391 106.906 475.781 106.531 474.984 106.156C474.203 105.766 473.172 105.359 471.891 104.938C470.391 104.438 468.945 103.875 467.555 103.25C466.164 102.609 464.922 101.867 463.828 101.023C462.734 100.164 461.867 99.1641 461.227 98.0234C460.586 96.8672 460.266 95.5234 460.266 93.9922C460.266 92.5234 460.594 91.2031 461.25 90.0312C461.906 88.8438 462.82 87.8359 463.992 87.0078C465.18 86.1641 466.57 85.5234 468.164 85.0859C469.758 84.6328 471.5 84.4062 473.391 84.4062C475.891 84.4062 478.094 84.8438 480 85.7188C481.922 86.5781 483.422 87.8047 484.5 89.3984C485.594 90.9766 486.141 92.8438 486.141 95H477.961C477.961 94.1406 477.781 93.3828 477.422 92.7266C477.078 92.0703 476.555 91.5547 475.852 91.1797C475.148 90.8047 474.266 90.6172 473.203 90.6172C472.172 90.6172 471.305 90.7734 470.602 91.0859C469.898 91.3984 469.367 91.8203 469.008 92.3516C468.648 92.8672 468.469 93.4375 468.469 94.0625C468.469 94.5781 468.609 95.0469 468.891 95.4688C469.188 95.875 469.602 96.2578 470.133 96.6172C470.68 96.9766 471.336 97.3203 472.102 97.6484C472.883 97.9766 473.758 98.2969 474.727 98.6094C476.539 99.1875 478.148 99.8359 479.555 100.555C480.977 101.258 482.172 102.062 483.141 102.969C484.125 103.859 484.867 104.875 485.367 106.016C485.883 107.156 486.141 108.445 486.141 109.883C486.141 111.414 485.844 112.773 485.25 113.961C484.656 115.148 483.805 116.156 482.695 116.984C481.586 117.797 480.258 118.414 478.711 118.836C477.164 119.258 475.438 119.469 473.531 119.469C471.781 119.469 470.055 119.25 468.352 118.812C466.664 118.359 465.133 117.672 463.758 116.75C462.383 115.812 461.281 114.617 460.453 113.164C459.641 111.695 459.234 109.953 459.234 107.938H467.484C467.484 108.938 467.617 109.781 467.883 110.469C468.148 111.156 468.539 111.711 469.055 112.133C469.57 112.539 470.203 112.836 470.953 113.023C471.703 113.195 472.562 113.281 473.531 113.281C474.578 113.281 475.422 113.133 476.062 112.836C476.703 112.523 477.172 112.117 477.469 111.617C477.766 111.102 477.914 110.539 477.914 109.93ZM500.719 113.375C501.453 113.375 502.078 113.242 502.594 112.977C503.125 112.695 503.523 112.305 503.789 111.805C504.07 111.289 504.203 110.672 504.188 109.953H511.617C511.633 111.859 511.164 113.531 510.211 114.969C509.273 116.391 507.992 117.5 506.367 118.297C504.758 119.078 502.938 119.469 500.906 119.469C498.922 119.469 497.188 119.148 495.703 118.508C494.219 117.852 492.977 116.945 491.977 115.789C490.992 114.617 490.25 113.25 489.75 111.688C489.266 110.125 489.023 108.43 489.023 106.602V106.062C489.023 104.234 489.266 102.539 489.75 100.977C490.25 99.3984 490.992 98.0312 491.977 96.875C492.977 95.7031 494.211 94.7969 495.68 94.1562C497.164 93.5 498.891 93.1719 500.859 93.1719C502.969 93.1719 504.828 93.5703 506.438 94.3672C508.062 95.1641 509.336 96.3203 510.258 97.8359C511.18 99.3516 511.633 101.188 511.617 103.344H504.188C504.203 102.578 504.086 101.891 503.836 101.281C503.586 100.672 503.195 100.188 502.664 99.8281C502.148 99.4531 501.484 99.2656 500.672 99.2656C499.859 99.2656 499.203 99.4453 498.703 99.8047C498.203 100.164 497.82 100.664 497.555 101.305C497.305 101.93 497.133 102.648 497.039 103.461C496.961 104.273 496.922 105.141 496.922 106.062V106.602C496.922 107.539 496.961 108.422 497.039 109.25C497.133 110.062 497.312 110.781 497.578 111.406C497.844 112.016 498.227 112.5 498.727 112.859C499.227 113.203 499.891 113.375 500.719 113.375ZM522.727 83V119H514.828V83H522.727ZM521.789 105.453L519.938 105.5C519.938 103.719 520.156 102.078 520.594 100.578C521.031 99.0781 521.656 97.7734 522.469 96.6641C523.281 95.5547 524.258 94.6953 525.398 94.0859C526.539 93.4766 527.805 93.1719 529.195 93.1719C530.445 93.1719 531.586 93.3516 532.617 93.7109C533.664 94.0703 534.562 94.6484 535.312 95.4453C536.078 96.2422 536.664 97.2812 537.07 98.5625C537.492 99.8438 537.703 101.406 537.703 103.25V119H529.758V103.203C529.758 102.172 529.609 101.375 529.312 100.812C529.031 100.234 528.625 99.8359 528.094 99.6172C527.562 99.3828 526.914 99.2656 526.148 99.2656C525.227 99.2656 524.477 99.4219 523.898 99.7344C523.32 100.047 522.875 100.484 522.562 101.047C522.266 101.594 522.062 102.242 521.953 102.992C521.844 103.742 521.789 104.562 521.789 105.453ZM554.367 119.469C552.305 119.469 550.461 119.148 548.836 118.508C547.211 117.852 545.836 116.953 544.711 115.812C543.602 114.672 542.75 113.359 542.156 111.875C541.578 110.391 541.289 108.82 541.289 107.164V106.273C541.289 104.414 541.547 102.695 542.062 101.117C542.578 99.5234 543.344 98.1328 544.359 96.9453C545.375 95.7578 546.648 94.8359 548.18 94.1797C549.711 93.5078 551.492 93.1719 553.523 93.1719C555.32 93.1719 556.93 93.4609 558.352 94.0391C559.773 94.6172 560.977 95.4453 561.961 96.5234C562.961 97.6016 563.719 98.9062 564.234 100.438C564.766 101.969 565.031 103.688 565.031 105.594V108.805H544.312V103.859H557.32V103.25C557.336 102.406 557.188 101.688 556.875 101.094C556.578 100.5 556.141 100.047 555.562 99.7344C554.984 99.4219 554.281 99.2656 553.453 99.2656C552.594 99.2656 551.883 99.4531 551.32 99.8281C550.773 100.203 550.344 100.719 550.031 101.375C549.734 102.016 549.523 102.758 549.398 103.602C549.273 104.445 549.211 105.336 549.211 106.273V107.164C549.211 108.102 549.336 108.953 549.586 109.719C549.852 110.484 550.227 111.141 550.711 111.688C551.211 112.219 551.805 112.633 552.492 112.93C553.195 113.227 553.992 113.375 554.883 113.375C555.961 113.375 557.023 113.172 558.07 112.766C559.117 112.359 560.016 111.688 560.766 110.75L564.352 115.016C563.836 115.75 563.102 116.461 562.148 117.148C561.211 117.836 560.086 118.398 558.773 118.836C557.461 119.258 555.992 119.469 554.367 119.469ZM576.211 99.0078V119H568.312V93.6406H575.719L576.211 99.0078ZM575.25 105.453L573.445 105.5C573.445 103.719 573.656 102.078 574.078 100.578C574.5 99.0781 575.125 97.7734 575.953 96.6641C576.781 95.5547 577.797 94.6953 579 94.0859C580.219 93.4766 581.625 93.1719 583.219 93.1719C584.328 93.1719 585.336 93.3438 586.242 93.6875C587.148 94.0156 587.93 94.5391 588.586 95.2578C589.242 95.9609 589.742 96.8828 590.086 98.0234C590.445 99.1484 590.625 100.5 590.625 102.078V119H582.727V103.086C582.727 102.008 582.602 101.195 582.352 100.648C582.117 100.102 581.773 99.7344 581.32 99.5469C580.867 99.3594 580.312 99.2656 579.656 99.2656C578.969 99.2656 578.352 99.4219 577.805 99.7344C577.258 100.047 576.789 100.484 576.398 101.047C576.023 101.594 575.734 102.242 575.531 102.992C575.344 103.742 575.25 104.562 575.25 105.453ZM589.734 105.453L587.531 105.5C587.531 103.719 587.727 102.078 588.117 100.578C588.523 99.0781 589.125 97.7734 589.922 96.6641C590.734 95.5547 591.742 94.6953 592.945 94.0859C594.148 93.4766 595.547 93.1719 597.141 93.1719C598.297 93.1719 599.359 93.3438 600.328 93.6875C601.297 94.0312 602.133 94.5859 602.836 95.3516C603.539 96.1172 604.086 97.1328 604.477 98.3984C604.867 99.6484 605.062 101.195 605.062 103.039V119H597.141V103.039C597.141 101.992 597.016 101.203 596.766 100.672C596.531 100.125 596.188 99.7578 595.734 99.5703C595.281 99.3672 594.742 99.2656 594.117 99.2656C593.367 99.2656 592.719 99.4219 592.172 99.7344C591.625 100.047 591.164 100.484 590.789 101.047C590.43 101.594 590.164 102.242 589.992 102.992C589.82 103.742 589.734 104.562 589.734 105.453ZM622.758 112.625V102.172C622.758 101.453 622.656 100.836 622.453 100.32C622.25 99.8047 621.93 99.4062 621.492 99.125C621.055 98.8281 620.469 98.6797 619.734 98.6797C619.141 98.6797 618.633 98.7812 618.211 98.9844C617.789 99.1875 617.469 99.4922 617.25 99.8984C617.031 100.305 616.922 100.82 616.922 101.445H609.023C609.023 100.273 609.281 99.1875 609.797 98.1875C610.328 97.1719 611.078 96.2891 612.047 95.5391C613.031 94.7891 614.203 94.2109 615.562 93.8047C616.938 93.3828 618.469 93.1719 620.156 93.1719C622.172 93.1719 623.969 93.5078 625.547 94.1797C627.141 94.8516 628.398 95.8594 629.32 97.2031C630.242 98.5312 630.703 100.203 630.703 102.219V112.602C630.703 114.258 630.797 115.516 630.984 116.375C631.172 117.219 631.438 117.961 631.781 118.602V119H623.859C623.484 118.219 623.203 117.266 623.016 116.141C622.844 115 622.758 113.828 622.758 112.625ZM623.719 103.508L623.766 107.727H620.273C619.539 107.727 618.914 107.828 618.398 108.031C617.898 108.234 617.492 108.516 617.18 108.875C616.883 109.219 616.664 109.609 616.523 110.047C616.398 110.484 616.336 110.945 616.336 111.43C616.336 111.898 616.445 112.32 616.664 112.695C616.898 113.055 617.211 113.336 617.602 113.539C617.992 113.742 618.43 113.844 618.914 113.844C619.789 113.844 620.531 113.68 621.141 113.352C621.766 113.008 622.242 112.594 622.57 112.109C622.898 111.625 623.062 111.172 623.062 110.75L624.797 113.984C624.484 114.609 624.125 115.242 623.719 115.883C623.328 116.523 622.836 117.117 622.242 117.664C621.664 118.195 620.953 118.633 620.109 118.977C619.266 119.305 618.242 119.469 617.039 119.469C615.477 119.469 614.039 119.148 612.727 118.508C611.43 117.867 610.391 116.977 609.609 115.836C608.828 114.68 608.438 113.352 608.438 111.852C608.438 110.539 608.672 109.367 609.141 108.336C609.625 107.305 610.352 106.43 611.32 105.711C612.289 104.992 613.523 104.445 615.023 104.07C616.523 103.695 618.289 103.508 620.32 103.508H623.719Z" fill="black"/>
<path d="M1134 0H1348C1356.28 0 1363 6.71573 1363 15V148C1363 156.284 1356.28 163 1348 163H1134V0Z" fill="#F65164"/>
<path d="M1217.58 64.1667C1217.58 66.0281 1218.51 67.7419 1220.09 69.2434C1221.67 70.7429 1223.94 72.0619 1226.71 73.1553C1232.26 75.343 1239.93 76.6667 1248.5 76.6667C1257.07 76.6667 1264.74 75.343 1270.29 73.1553C1273.06 72.0619 1275.33 70.7429 1276.91 69.2434C1278.49 67.7419 1279.42 66.0281 1279.42 64.1667C1279.42 62.3052 1278.49 60.5914 1276.91 59.0899C1275.33 57.5904 1273.06 56.2714 1270.29 55.178C1264.74 52.9903 1257.07 51.6667 1248.5 51.6667C1239.93 51.6667 1232.26 52.9903 1226.71 55.178C1223.94 56.2714 1221.67 57.5904 1220.09 59.0899C1218.51 60.5914 1217.58 62.3052 1217.58 64.1667ZM1221.62 64.1667C1221.62 63.0283 1222.37 61.8878 1223.88 60.7921C1225.37 59.7041 1227.52 58.7293 1230.11 57.9144C1235.28 56.2864 1242.07 55.3333 1248.5 55.3333C1254.93 55.3333 1261.72 56.2864 1266.89 57.9144C1269.48 58.7293 1271.63 59.7041 1273.12 60.7921C1274.63 61.8878 1275.37 63.0283 1275.37 64.1667C1275.37 65.305 1274.63 66.4455 1273.12 67.5412C1271.63 68.6292 1269.48 69.604 1266.89 70.4189C1261.72 72.0469 1254.93 73 1248.5 73C1242.07 73 1235.28 72.0469 1230.11 70.4189C1227.52 69.604 1225.37 68.6292 1223.88 67.5412C1222.37 66.4455 1221.62 65.305 1221.62 64.1667Z" fill="white" stroke="white"/>
<path d="M1217.58 74.8333C1217.58 76.6948 1218.51 78.4086 1220.09 79.9101C1221.67 81.4096 1223.94 82.7286 1226.71 83.822C1232.26 86.0097 1239.93 87.3333 1248.5 87.3333C1257.07 87.3333 1264.74 86.0097 1270.29 83.822C1273.06 82.7286 1275.33 81.4096 1276.91 79.9101C1278.49 78.4086 1279.42 76.6948 1279.42 74.8333V64.1667C1279.42 63.6576 1279.19 63.1851 1278.8 62.8479C1278.42 62.5126 1277.91 62.3333 1277.4 62.3333C1276.88 62.3333 1276.37 62.5126 1275.99 62.8479C1275.61 63.1851 1275.37 63.6576 1275.37 64.1667V74.8333C1275.37 75.9717 1274.63 77.1122 1273.12 78.2079C1271.63 79.2959 1269.48 80.2707 1266.89 81.0856C1261.72 82.7136 1254.93 83.6667 1248.5 83.6667C1242.07 83.6667 1235.28 82.7136 1230.11 81.0856C1227.52 80.2707 1225.37 79.2959 1223.88 78.2079C1222.37 77.1122 1221.62 75.9717 1221.62 74.8333V64.1667C1221.62 63.6576 1221.39 63.1851 1221.01 62.8479C1220.63 62.5126 1220.12 62.3333 1219.6 62.3333C1219.09 62.3333 1218.58 62.5126 1218.2 62.8479C1217.81 63.1851 1217.58 63.6576 1217.58 64.1667V74.8333Z" fill="white" stroke="white"/>
<path d="M1217.58 86.8333C1217.58 88.6948 1218.51 90.4086 1220.09 91.9101C1221.67 93.4095 1223.94 94.7286 1226.71 95.8219C1232.26 98.0097 1239.93 99.3333 1248.5 99.3333C1257.07 99.3333 1264.74 98.0097 1270.29 95.8219C1273.06 94.7286 1275.33 93.4095 1276.91 91.9101C1278.49 90.4086 1279.42 88.6948 1279.42 86.8333V74.8333C1279.42 74.3243 1279.19 73.8517 1278.8 73.5146C1278.42 73.1792 1277.91 73 1277.4 73C1276.88 73 1276.37 73.1792 1275.99 73.5146C1275.61 73.8517 1275.37 74.3243 1275.37 74.8333V86.8333C1275.37 87.9717 1274.63 89.1122 1273.12 90.2079C1271.63 91.2958 1269.48 92.2707 1266.89 93.0856C1261.72 94.7136 1254.93 95.6667 1248.5 95.6667C1242.07 95.6667 1235.28 94.7136 1230.11 93.0856C1227.52 92.2707 1225.37 91.2958 1223.88 90.2079C1222.37 89.1122 1221.62 87.9717 1221.62 86.8333V74.8333C1221.62 74.3243 1221.39 73.8517 1221.01 73.5146C1220.63 73.1792 1220.12 73 1219.6 73C1219.09 73 1218.58 73.1792 1218.2 73.5146C1217.81 73.8517 1217.58 74.3243 1217.58 74.8333V86.8333Z" fill="white" stroke="white"/>
<path d="M1217.58 98.8333C1217.58 100.695 1218.51 102.409 1220.09 103.91C1221.67 105.41 1223.94 106.729 1226.71 107.822C1232.26 110.01 1239.93 111.333 1248.5 111.333C1257.07 111.333 1264.74 110.01 1270.29 107.822C1273.06 106.729 1275.33 105.41 1276.91 103.91C1278.49 102.409 1279.42 100.695 1279.42 98.8333V86.8333C1279.42 86.3243 1279.19 85.8517 1278.8 85.5146C1278.42 85.1792 1277.91 85 1277.4 85C1276.88 85 1276.37 85.1792 1275.99 85.5146C1275.61 85.8517 1275.37 86.3243 1275.37 86.8333V98.8333C1275.37 99.9717 1274.63 101.112 1273.12 102.208C1271.63 103.296 1269.48 104.271 1266.89 105.086C1261.72 106.714 1254.93 107.667 1248.5 107.667C1242.07 107.667 1235.28 106.714 1230.11 105.086C1227.52 104.271 1225.37 103.296 1223.88 102.208C1222.37 101.112 1221.62 99.9717 1221.62 98.8333V86.8333C1221.62 86.3243 1221.39 85.8517 1221.01 85.5146C1220.63 85.1792 1220.12 85 1219.6 85C1219.09 85 1218.58 85.1792 1218.2 85.5146C1217.81 85.8517 1217.58 86.3243 1217.58 86.8333V98.8333Z" fill="white" stroke="white"/>
</svg>
