<svg width="1363" height="163" viewBox="0 0 1363 163" fill="none" xmlns="http://www.w3.org/2000/svg">
<path d="M0 15C0 6.71573 6.71573 0 15 0H37V163H15C6.71573 163 0 156.284 0 148V15Z" fill="#424242"/>
<rect width="1097" height="163" transform="translate(37)" fill="#F0F0F0"/>
<path d="M98.0391 43.9375V61H94.5234V43.9375H98.0391ZM108.258 43.9375L101.496 52.3633L97.5938 56.5586L96.9609 53.2305L99.5977 49.6211L103.945 43.9375H108.258ZM104.262 61L99.2344 53.1133L101.836 50.9336L108.422 61H104.262ZM116.414 58.1406V52.4922C116.414 52.0859 116.348 51.7383 116.215 51.4492C116.082 51.1523 115.875 50.9219 115.594 50.7578C115.32 50.5938 114.965 50.5117 114.527 50.5117C114.152 50.5117 113.828 50.5781 113.555 50.7109C113.281 50.8359 113.07 51.0195 112.922 51.2617C112.773 51.4961 112.699 51.7734 112.699 52.0938H109.324C109.324 51.5547 109.449 51.043 109.699 50.5586C109.949 50.0742 110.312 49.6484 110.789 49.2812C111.266 48.9062 111.832 48.6133 112.488 48.4023C113.152 48.1914 113.895 48.0859 114.715 48.0859C115.699 48.0859 116.574 48.25 117.34 48.5781C118.105 48.9062 118.707 49.3984 119.145 50.0547C119.59 50.7109 119.812 51.5312 119.812 52.5156V57.9414C119.812 58.6367 119.855 59.207 119.941 59.6523C120.027 60.0898 120.152 60.4727 120.316 60.8008V61H116.906C116.742 60.6562 116.617 60.2266 116.531 59.7109C116.453 59.1875 116.414 58.6641 116.414 58.1406ZM116.859 53.2773L116.883 55.1875H114.996C114.551 55.1875 114.164 55.2383 113.836 55.3398C113.508 55.4414 113.238 55.5859 113.027 55.7734C112.816 55.9531 112.66 56.1641 112.559 56.4062C112.465 56.6484 112.418 56.9141 112.418 57.2031C112.418 57.4922 112.484 57.7539 112.617 57.9883C112.75 58.2148 112.941 58.3945 113.191 58.5273C113.441 58.6523 113.734 58.7148 114.07 58.7148C114.578 58.7148 115.02 58.6133 115.395 58.4102C115.77 58.207 116.059 57.957 116.262 57.6602C116.473 57.3633 116.582 57.082 116.59 56.8164L117.48 58.2461C117.355 58.5664 117.184 58.8984 116.965 59.2422C116.754 59.5859 116.484 59.9102 116.156 60.2148C115.828 60.5117 115.434 60.7578 114.973 60.9531C114.512 61.1406 113.965 61.2344 113.332 61.2344C112.527 61.2344 111.797 61.0742 111.141 60.7539C110.492 60.4258 109.977 59.9766 109.594 59.4062C109.219 58.8281 109.031 58.1719 109.031 57.4375C109.031 56.7734 109.156 56.1836 109.406 55.668C109.656 55.1523 110.023 54.7188 110.508 54.3672C111 54.0078 111.613 53.7383 112.348 53.5586C113.082 53.3711 113.934 53.2773 114.902 53.2773H116.859ZM125.789 51.0859V61H122.414V48.3203H125.59L125.789 51.0859ZM129.609 48.2383L129.551 51.3672C129.387 51.3438 129.188 51.3242 128.953 51.3086C128.727 51.2852 128.52 51.2734 128.332 51.2734C127.855 51.2734 127.441 51.3359 127.09 51.4609C126.746 51.5781 126.457 51.7539 126.223 51.9883C125.996 52.2227 125.824 52.5078 125.707 52.8438C125.598 53.1797 125.535 53.5625 125.52 53.9922L124.84 53.7812C124.84 52.9609 124.922 52.207 125.086 51.5195C125.25 50.8242 125.488 50.2188 125.801 49.7031C126.121 49.1875 126.512 48.7891 126.973 48.5078C127.434 48.2266 127.961 48.0859 128.555 48.0859C128.742 48.0859 128.934 48.1016 129.129 48.1328C129.324 48.1562 129.484 48.1914 129.609 48.2383ZM138.457 58.2344V43H141.855V61H138.797L138.457 58.2344ZM130.441 54.8125V54.5664C130.441 53.5977 130.551 52.7188 130.77 51.9297C130.988 51.1328 131.309 50.4492 131.73 49.8789C132.152 49.3086 132.672 48.8672 133.289 48.5547C133.906 48.2422 134.609 48.0859 135.398 48.0859C136.141 48.0859 136.789 48.2422 137.344 48.5547C137.906 48.8672 138.383 49.3125 138.773 49.8906C139.172 50.4609 139.492 51.1367 139.734 51.918C139.977 52.6914 140.152 53.5391 140.262 54.4609V55C140.152 55.8828 139.977 56.7031 139.734 57.4609C139.492 58.2188 139.172 58.8828 138.773 59.4531C138.383 60.0156 137.906 60.4531 137.344 60.7656C136.781 61.0781 136.125 61.2344 135.375 61.2344C134.586 61.2344 133.883 61.0742 133.266 60.7539C132.656 60.4336 132.141 59.9844 131.719 59.4062C131.305 58.8281 130.988 58.1484 130.77 57.3672C130.551 56.5859 130.441 55.7344 130.441 54.8125ZM133.816 54.5664V54.8125C133.816 55.3359 133.855 55.8242 133.934 56.2773C134.02 56.7305 134.156 57.1328 134.344 57.4844C134.539 57.8281 134.789 58.0977 135.094 58.293C135.406 58.4805 135.785 58.5742 136.23 58.5742C136.809 58.5742 137.285 58.4453 137.66 58.1875C138.035 57.9219 138.32 57.5586 138.516 57.0977C138.719 56.6367 138.836 56.1055 138.867 55.5039V53.9688C138.844 53.4766 138.773 53.0352 138.656 52.6445C138.547 52.2461 138.383 51.9062 138.164 51.625C137.953 51.3438 137.688 51.125 137.367 50.9688C137.055 50.8125 136.684 50.7344 136.254 50.7344C135.816 50.7344 135.441 50.8359 135.129 51.0391C134.816 51.2344 134.562 51.5039 134.367 51.8477C134.18 52.1914 134.039 52.5977 133.945 53.0664C133.859 53.5273 133.816 54.0273 133.816 54.5664ZM148.137 48.3203V61H144.75V48.3203H148.137ZM144.855 46.7852L147.152 43.1758H150.82L147.598 46.7852H144.855ZM157.898 58.1406V52.4922C157.898 52.0859 157.832 51.7383 157.699 51.4492C157.566 51.1523 157.359 50.9219 157.078 50.7578C156.805 50.5938 156.449 50.5117 156.012 50.5117C155.637 50.5117 155.312 50.5781 155.039 50.7109C154.766 50.8359 154.555 51.0195 154.406 51.2617C154.258 51.4961 154.184 51.7734 154.184 52.0938H150.809C150.809 51.5547 150.934 51.043 151.184 50.5586C151.434 50.0742 151.797 49.6484 152.273 49.2812C152.75 48.9062 153.316 48.6133 153.973 48.4023C154.637 48.1914 155.379 48.0859 156.199 48.0859C157.184 48.0859 158.059 48.25 158.824 48.5781C159.59 48.9062 160.191 49.3984 160.629 50.0547C161.074 50.7109 161.297 51.5312 161.297 52.5156V57.9414C161.297 58.6367 161.34 59.207 161.426 59.6523C161.512 60.0898 161.637 60.4727 161.801 60.8008V61H158.391C158.227 60.6562 158.102 60.2266 158.016 59.7109C157.938 59.1875 157.898 58.6641 157.898 58.1406ZM158.344 53.2773L158.367 55.1875H156.48C156.035 55.1875 155.648 55.2383 155.32 55.3398C154.992 55.4414 154.723 55.5859 154.512 55.7734C154.301 55.9531 154.145 56.1641 154.043 56.4062C153.949 56.6484 153.902 56.9141 153.902 57.2031C153.902 57.4922 153.969 57.7539 154.102 57.9883C154.234 58.2148 154.426 58.3945 154.676 58.5273C154.926 58.6523 155.219 58.7148 155.555 58.7148C156.062 58.7148 156.504 58.6133 156.879 58.4102C157.254 58.207 157.543 57.957 157.746 57.6602C157.957 57.3633 158.066 57.082 158.074 56.8164L158.965 58.2461C158.84 58.5664 158.668 58.8984 158.449 59.2422C158.238 59.5859 157.969 59.9102 157.641 60.2148C157.312 60.5117 156.918 60.7578 156.457 60.9531C155.996 61.1406 155.449 61.2344 154.816 61.2344C154.012 61.2344 153.281 61.0742 152.625 60.7539C151.977 60.4258 151.461 59.9766 151.078 59.4062C150.703 58.8281 150.516 58.1719 150.516 57.4375C150.516 56.7734 150.641 56.1836 150.891 55.668C151.141 55.1523 151.508 54.7188 151.992 54.3672C152.484 54.0078 153.098 53.7383 153.832 53.5586C154.566 53.3711 155.418 53.2773 156.387 53.2773H158.344Z" fill="#888888"/>
<path d="M114.117 84.875H122.344V107.164C122.344 109.82 121.789 112.07 120.68 113.914C119.57 115.742 118.016 117.125 116.016 118.062C114.016 119 111.664 119.469 108.961 119.469C106.289 119.469 103.938 119 101.906 118.062C99.8906 117.125 98.3125 115.742 97.1719 113.914C96.0469 112.07 95.4844 109.82 95.4844 107.164V84.875H103.734V107.164C103.734 108.57 103.938 109.719 104.344 110.609C104.75 111.484 105.344 112.125 106.125 112.531C106.906 112.938 107.852 113.141 108.961 113.141C110.086 113.141 111.031 112.938 111.797 112.531C112.562 112.125 113.141 111.484 113.531 110.609C113.922 109.719 114.117 108.57 114.117 107.164V84.875ZM134.906 99.0547V119H127.008V93.6406H134.414L134.906 99.0547ZM133.969 105.453L132.117 105.5C132.117 103.562 132.352 101.836 132.82 100.32C133.289 98.7891 133.953 97.4922 134.812 96.4297C135.672 95.3672 136.695 94.5625 137.883 94.0156C139.086 93.4531 140.422 93.1719 141.891 93.1719C143.062 93.1719 144.133 93.3438 145.102 93.6875C146.086 94.0312 146.93 94.5859 147.633 95.3516C148.352 96.1172 148.898 97.1328 149.273 98.3984C149.664 99.6484 149.859 101.195 149.859 103.039V119H141.914V103.016C141.914 102 141.773 101.227 141.492 100.695C141.211 100.148 140.805 99.7734 140.273 99.5703C139.742 99.3672 139.094 99.2656 138.328 99.2656C137.516 99.2656 136.828 99.4219 136.266 99.7344C135.703 100.047 135.25 100.484 134.906 101.047C134.578 101.594 134.336 102.242 134.18 102.992C134.039 103.742 133.969 104.562 133.969 105.453ZM162.586 93.6406V119H154.664V93.6406H162.586ZM154.195 87.1016C154.195 85.9766 154.602 85.0547 155.414 84.3359C156.227 83.6172 157.281 83.2578 158.578 83.2578C159.875 83.2578 160.93 83.6172 161.742 84.3359C162.555 85.0547 162.961 85.9766 162.961 87.1016C162.961 88.2266 162.555 89.1484 161.742 89.8672C160.93 90.5859 159.875 90.9453 158.578 90.9453C157.281 90.9453 156.227 90.5859 155.414 89.8672C154.602 89.1484 154.195 88.2266 154.195 87.1016ZM180.82 93.6406V99.125H165.539V93.6406H180.82ZM168.75 87.3359H176.648V110.727C176.648 111.398 176.727 111.922 176.883 112.297C177.039 112.656 177.305 112.914 177.68 113.07C178.07 113.211 178.586 113.281 179.227 113.281C179.68 113.281 180.055 113.273 180.352 113.258C180.648 113.227 180.93 113.188 181.195 113.141V118.789C180.523 119.008 179.82 119.172 179.086 119.281C178.352 119.406 177.57 119.469 176.742 119.469C175.055 119.469 173.609 119.203 172.406 118.672C171.219 118.141 170.312 117.305 169.688 116.164C169.062 115.023 168.75 113.539 168.75 111.711V87.3359ZM211.406 84.875V119H203.18V84.875H211.406ZM221.672 84.875V91.2266H193.148V84.875H221.672ZM234.961 119.469C232.898 119.469 231.055 119.148 229.43 118.508C227.805 117.852 226.43 116.953 225.305 115.812C224.195 114.672 223.344 113.359 222.75 111.875C222.172 110.391 221.883 108.82 221.883 107.164V106.273C221.883 104.414 222.141 102.695 222.656 101.117C223.172 99.5234 223.938 98.1328 224.953 96.9453C225.969 95.7578 227.242 94.8359 228.773 94.1797C230.305 93.5078 232.086 93.1719 234.117 93.1719C235.914 93.1719 237.523 93.4609 238.945 94.0391C240.367 94.6172 241.57 95.4453 242.555 96.5234C243.555 97.6016 244.312 98.9062 244.828 100.438C245.359 101.969 245.625 103.688 245.625 105.594V108.805H224.906V103.859H237.914V103.25C237.93 102.406 237.781 101.688 237.469 101.094C237.172 100.5 236.734 100.047 236.156 99.7344C235.578 99.4219 234.875 99.2656 234.047 99.2656C233.188 99.2656 232.477 99.4531 231.914 99.8281C231.367 100.203 230.938 100.719 230.625 101.375C230.328 102.016 230.117 102.758 229.992 103.602C229.867 104.445 229.805 105.336 229.805 106.273V107.164C229.805 108.102 229.93 108.953 230.18 109.719C230.445 110.484 230.82 111.141 231.305 111.688C231.805 112.219 232.398 112.633 233.086 112.93C233.789 113.227 234.586 113.375 235.477 113.375C236.555 113.375 237.617 113.172 238.664 112.766C239.711 112.359 240.609 111.688 241.359 110.75L244.945 115.016C244.43 115.75 243.695 116.461 242.742 117.148C241.805 117.836 240.68 118.398 239.367 118.836C238.055 119.258 236.586 119.469 234.961 119.469ZM262.125 111.875C262.125 111.438 261.977 111.062 261.68 110.75C261.398 110.422 260.898 110.125 260.18 109.859C259.461 109.578 258.453 109.297 257.156 109.016C255.922 108.75 254.758 108.398 253.664 107.961C252.586 107.523 251.641 106.992 250.828 106.367C250.016 105.742 249.375 105 248.906 104.141C248.453 103.281 248.227 102.297 248.227 101.188C248.227 100.109 248.453 99.0938 248.906 98.1406C249.375 97.1719 250.055 96.3203 250.945 95.5859C251.852 94.8359 252.953 94.25 254.25 93.8281C255.547 93.3906 257.023 93.1719 258.68 93.1719C260.961 93.1719 262.93 93.5234 264.586 94.2266C266.242 94.9141 267.516 95.8828 268.406 97.1328C269.312 98.3672 269.766 99.7969 269.766 101.422H261.867C261.867 100.781 261.758 100.234 261.539 99.7812C261.336 99.3281 261 98.9844 260.531 98.75C260.062 98.5 259.438 98.375 258.656 98.375C258.109 98.375 257.609 98.4766 257.156 98.6797C256.719 98.8828 256.367 99.1641 256.102 99.5234C255.836 99.8828 255.703 100.305 255.703 100.789C255.703 101.133 255.781 101.445 255.938 101.727C256.109 101.992 256.367 102.242 256.711 102.477C257.055 102.695 257.492 102.898 258.023 103.086C258.555 103.258 259.195 103.414 259.945 103.555C261.648 103.867 263.242 104.312 264.727 104.891C266.211 105.469 267.414 106.289 268.336 107.352C269.273 108.414 269.742 109.844 269.742 111.641C269.742 112.766 269.484 113.805 268.969 114.758C268.453 115.695 267.711 116.523 266.742 117.242C265.773 117.945 264.609 118.492 263.25 118.883C261.891 119.273 260.359 119.469 258.656 119.469C256.234 119.469 254.188 119.039 252.516 118.18C250.844 117.305 249.578 116.211 248.719 114.898C247.875 113.57 247.453 112.227 247.453 110.867H254.812C254.844 111.648 255.031 112.289 255.375 112.789C255.734 113.289 256.211 113.656 256.805 113.891C257.398 114.125 258.086 114.242 258.867 114.242C259.586 114.242 260.18 114.141 260.648 113.938C261.133 113.734 261.5 113.461 261.75 113.117C262 112.758 262.125 112.344 262.125 111.875ZM286.805 93.6406V99.125H271.523V93.6406H286.805ZM274.734 87.3359H282.633V110.727C282.633 111.398 282.711 111.922 282.867 112.297C283.023 112.656 283.289 112.914 283.664 113.07C284.055 113.211 284.57 113.281 285.211 113.281C285.664 113.281 286.039 113.273 286.336 113.258C286.633 113.227 286.914 113.188 287.18 113.141V118.789C286.508 119.008 285.805 119.172 285.07 119.281C284.336 119.406 283.555 119.469 282.727 119.469C281.039 119.469 279.594 119.203 278.391 118.672C277.203 118.141 276.297 117.305 275.672 116.164C275.047 115.023 274.734 113.539 274.734 111.711V87.3359ZM298.289 93.6406V119H290.367V93.6406H298.289ZM289.898 87.1016C289.898 85.9766 290.305 85.0547 291.117 84.3359C291.93 83.6172 292.984 83.2578 294.281 83.2578C295.578 83.2578 296.633 83.6172 297.445 84.3359C298.258 85.0547 298.664 85.9766 298.664 87.1016C298.664 88.2266 298.258 89.1484 297.445 89.8672C296.633 90.5859 295.578 90.9453 294.281 90.9453C292.984 90.9453 291.93 90.5859 291.117 89.8672C290.305 89.1484 289.898 88.2266 289.898 87.1016ZM310.922 99.0547V119H303.023V93.6406H310.43L310.922 99.0547ZM309.984 105.453L308.133 105.5C308.133 103.562 308.367 101.836 308.836 100.32C309.305 98.7891 309.969 97.4922 310.828 96.4297C311.688 95.3672 312.711 94.5625 313.898 94.0156C315.102 93.4531 316.438 93.1719 317.906 93.1719C319.078 93.1719 320.148 93.3438 321.117 93.6875C322.102 94.0312 322.945 94.5859 323.648 95.3516C324.367 96.1172 324.914 97.1328 325.289 98.3984C325.68 99.6484 325.875 101.195 325.875 103.039V119H317.93V103.016C317.93 102 317.789 101.227 317.508 100.695C317.227 100.148 316.82 99.7734 316.289 99.5703C315.758 99.3672 315.109 99.2656 314.344 99.2656C313.531 99.2656 312.844 99.4219 312.281 99.7344C311.719 100.047 311.266 100.484 310.922 101.047C310.594 101.594 310.352 102.242 310.195 102.992C310.055 103.742 309.984 104.562 309.984 105.453ZM346.195 93.6406H353.367V118.016C353.367 120.359 352.828 122.344 351.75 123.969C350.672 125.609 349.164 126.852 347.227 127.695C345.305 128.555 343.055 128.984 340.477 128.984C339.336 128.984 338.172 128.836 336.984 128.539C335.797 128.258 334.688 127.836 333.656 127.273C332.625 126.711 331.758 126.016 331.055 125.188L334.359 120.547C335 121.266 335.805 121.875 336.773 122.375C337.742 122.891 338.883 123.148 340.195 123.148C341.336 123.148 342.289 122.945 343.055 122.539C343.836 122.133 344.43 121.539 344.836 120.758C345.242 119.992 345.445 119.062 345.445 117.969V99.6406L346.195 93.6406ZM329.344 106.625V106.133C329.344 104.211 329.578 102.461 330.047 100.883C330.531 99.2891 331.219 97.9219 332.109 96.7812C333.016 95.625 334.109 94.7344 335.391 94.1094C336.672 93.4844 338.117 93.1719 339.727 93.1719C341.461 93.1719 342.883 93.5078 343.992 94.1797C345.117 94.8359 346.016 95.7578 346.688 96.9453C347.375 98.1328 347.906 99.5234 348.281 101.117C348.672 102.695 349 104.398 349.266 106.227V106.812C349 108.531 348.633 110.156 348.164 111.688C347.711 113.203 347.117 114.547 346.383 115.719C345.648 116.891 344.727 117.812 343.617 118.484C342.523 119.141 341.211 119.469 339.68 119.469C338.086 119.469 336.648 119.148 335.367 118.508C334.102 117.867 333.016 116.969 332.109 115.812C331.219 114.656 330.531 113.297 330.047 111.734C329.578 110.172 329.344 108.469 329.344 106.625ZM337.242 106.133V106.625C337.242 107.578 337.328 108.461 337.5 109.273C337.688 110.086 337.969 110.805 338.344 111.43C338.719 112.039 339.18 112.516 339.727 112.859C340.289 113.203 340.945 113.375 341.695 113.375C342.836 113.375 343.758 113.133 344.461 112.648C345.164 112.164 345.672 111.477 345.984 110.586C346.297 109.695 346.43 108.648 346.383 107.445V105.594C346.414 104.562 346.344 103.656 346.172 102.875C346 102.078 345.727 101.414 345.352 100.883C344.992 100.352 344.508 99.9531 343.898 99.6875C343.305 99.4062 342.586 99.2656 341.742 99.2656C341.008 99.2656 340.359 99.4375 339.797 99.7812C339.234 100.125 338.766 100.609 338.391 101.234C338.016 101.844 337.727 102.57 337.523 103.414C337.336 104.242 337.242 105.148 337.242 106.133Z" fill="black"/>
<path d="M1134 0H1348C1356.28 0 1363 6.71573 1363 15V148C1363 156.284 1356.28 163 1348 163H1134V0Z" fill="#F65164"/>
<path d="M1210.62 43.625H1286.38V119.375H1210.62V43.625Z" fill="white" fill-opacity="0.01"/>
<path d="M1276.91 72.0312V105.172C1276.91 107.787 1274.79 109.906 1272.17 109.906H1224.83C1222.21 109.906 1220.09 107.787 1220.09 105.172V57.8281C1220.09 55.2134 1222.21 53.0938 1224.83 53.0938H1261.12" stroke="white" stroke-width="7.24" stroke-linecap="round" stroke-linejoin="round"/>
<path d="M1232.72 75.1875L1248.5 87.8125L1276.91 53.0938" stroke="white" stroke-width="7.24" stroke-linecap="round" stroke-linejoin="round"/>
</svg>
