<svg width="1363" height="163" viewBox="0 0 1363 163" fill="none" xmlns="http://www.w3.org/2000/svg">
<path d="M0 15C0 6.71573 6.71573 0 15 0H37V163H15C6.71573 163 0 156.284 0 148V15Z" fill="#424242"/>
<rect width="1097" height="163" transform="translate(37)" fill="#F0F0F0"/>
<path d="M98.0391 43.9375V61H94.5234V43.9375H98.0391ZM108.258 43.9375L101.496 52.3633L97.5938 56.5586L96.9609 53.2305L99.5977 49.6211L103.945 43.9375H108.258ZM104.262 61L99.2344 53.1133L101.836 50.9336L108.422 61H104.262ZM116.414 58.1406V52.4922C116.414 52.0859 116.348 51.7383 116.215 51.4492C116.082 51.1523 115.875 50.9219 115.594 50.7578C115.32 50.5938 114.965 50.5117 114.527 50.5117C114.152 50.5117 113.828 50.5781 113.555 50.7109C113.281 50.8359 113.07 51.0195 112.922 51.2617C112.773 51.4961 112.699 51.7734 112.699 52.0938H109.324C109.324 51.5547 109.449 51.043 109.699 50.5586C109.949 50.0742 110.312 49.6484 110.789 49.2812C111.266 48.9062 111.832 48.6133 112.488 48.4023C113.152 48.1914 113.895 48.0859 114.715 48.0859C115.699 48.0859 116.574 48.25 117.34 48.5781C118.105 48.9062 118.707 49.3984 119.145 50.0547C119.59 50.7109 119.812 51.5312 119.812 52.5156V57.9414C119.812 58.6367 119.855 59.207 119.941 59.6523C120.027 60.0898 120.152 60.4727 120.316 60.8008V61H116.906C116.742 60.6562 116.617 60.2266 116.531 59.7109C116.453 59.1875 116.414 58.6641 116.414 58.1406ZM116.859 53.2773L116.883 55.1875H114.996C114.551 55.1875 114.164 55.2383 113.836 55.3398C113.508 55.4414 113.238 55.5859 113.027 55.7734C112.816 55.9531 112.66 56.1641 112.559 56.4062C112.465 56.6484 112.418 56.9141 112.418 57.2031C112.418 57.4922 112.484 57.7539 112.617 57.9883C112.75 58.2148 112.941 58.3945 113.191 58.5273C113.441 58.6523 113.734 58.7148 114.07 58.7148C114.578 58.7148 115.02 58.6133 115.395 58.4102C115.77 58.207 116.059 57.957 116.262 57.6602C116.473 57.3633 116.582 57.082 116.59 56.8164L117.48 58.2461C117.355 58.5664 117.184 58.8984 116.965 59.2422C116.754 59.5859 116.484 59.9102 116.156 60.2148C115.828 60.5117 115.434 60.7578 114.973 60.9531C114.512 61.1406 113.965 61.2344 113.332 61.2344C112.527 61.2344 111.797 61.0742 111.141 60.7539C110.492 60.4258 109.977 59.9766 109.594 59.4062C109.219 58.8281 109.031 58.1719 109.031 57.4375C109.031 56.7734 109.156 56.1836 109.406 55.668C109.656 55.1523 110.023 54.7188 110.508 54.3672C111 54.0078 111.613 53.7383 112.348 53.5586C113.082 53.3711 113.934 53.2773 114.902 53.2773H116.859ZM125.789 51.0859V61H122.414V48.3203H125.59L125.789 51.0859ZM129.609 48.2383L129.551 51.3672C129.387 51.3438 129.188 51.3242 128.953 51.3086C128.727 51.2852 128.52 51.2734 128.332 51.2734C127.855 51.2734 127.441 51.3359 127.09 51.4609C126.746 51.5781 126.457 51.7539 126.223 51.9883C125.996 52.2227 125.824 52.5078 125.707 52.8438C125.598 53.1797 125.535 53.5625 125.52 53.9922L124.84 53.7812C124.84 52.9609 124.922 52.207 125.086 51.5195C125.25 50.8242 125.488 50.2188 125.801 49.7031C126.121 49.1875 126.512 48.7891 126.973 48.5078C127.434 48.2266 127.961 48.0859 128.555 48.0859C128.742 48.0859 128.934 48.1016 129.129 48.1328C129.324 48.1562 129.484 48.1914 129.609 48.2383ZM138.457 58.2344V43H141.855V61H138.797L138.457 58.2344ZM130.441 54.8125V54.5664C130.441 53.5977 130.551 52.7188 130.77 51.9297C130.988 51.1328 131.309 50.4492 131.73 49.8789C132.152 49.3086 132.672 48.8672 133.289 48.5547C133.906 48.2422 134.609 48.0859 135.398 48.0859C136.141 48.0859 136.789 48.2422 137.344 48.5547C137.906 48.8672 138.383 49.3125 138.773 49.8906C139.172 50.4609 139.492 51.1367 139.734 51.918C139.977 52.6914 140.152 53.5391 140.262 54.4609V55C140.152 55.8828 139.977 56.7031 139.734 57.4609C139.492 58.2188 139.172 58.8828 138.773 59.4531C138.383 60.0156 137.906 60.4531 137.344 60.7656C136.781 61.0781 136.125 61.2344 135.375 61.2344C134.586 61.2344 133.883 61.0742 133.266 60.7539C132.656 60.4336 132.141 59.9844 131.719 59.4062C131.305 58.8281 130.988 58.1484 130.77 57.3672C130.551 56.5859 130.441 55.7344 130.441 54.8125ZM133.816 54.5664V54.8125C133.816 55.3359 133.855 55.8242 133.934 56.2773C134.02 56.7305 134.156 57.1328 134.344 57.4844C134.539 57.8281 134.789 58.0977 135.094 58.293C135.406 58.4805 135.785 58.5742 136.23 58.5742C136.809 58.5742 137.285 58.4453 137.66 58.1875C138.035 57.9219 138.32 57.5586 138.516 57.0977C138.719 56.6367 138.836 56.1055 138.867 55.5039V53.9688C138.844 53.4766 138.773 53.0352 138.656 52.6445C138.547 52.2461 138.383 51.9062 138.164 51.625C137.953 51.3438 137.688 51.125 137.367 50.9688C137.055 50.8125 136.684 50.7344 136.254 50.7344C135.816 50.7344 135.441 50.8359 135.129 51.0391C134.816 51.2344 134.562 51.5039 134.367 51.8477C134.18 52.1914 134.039 52.5977 133.945 53.0664C133.859 53.5273 133.816 54.0273 133.816 54.5664ZM148.137 48.3203V61H144.75V48.3203H148.137ZM144.855 46.7852L147.152 43.1758H150.82L147.598 46.7852H144.855ZM157.898 58.1406V52.4922C157.898 52.0859 157.832 51.7383 157.699 51.4492C157.566 51.1523 157.359 50.9219 157.078 50.7578C156.805 50.5938 156.449 50.5117 156.012 50.5117C155.637 50.5117 155.312 50.5781 155.039 50.7109C154.766 50.8359 154.555 51.0195 154.406 51.2617C154.258 51.4961 154.184 51.7734 154.184 52.0938H150.809C150.809 51.5547 150.934 51.043 151.184 50.5586C151.434 50.0742 151.797 49.6484 152.273 49.2812C152.75 48.9062 153.316 48.6133 153.973 48.4023C154.637 48.1914 155.379 48.0859 156.199 48.0859C157.184 48.0859 158.059 48.25 158.824 48.5781C159.59 48.9062 160.191 49.3984 160.629 50.0547C161.074 50.7109 161.297 51.5312 161.297 52.5156V57.9414C161.297 58.6367 161.34 59.207 161.426 59.6523C161.512 60.0898 161.637 60.4727 161.801 60.8008V61H158.391C158.227 60.6562 158.102 60.2266 158.016 59.7109C157.938 59.1875 157.898 58.6641 157.898 58.1406ZM158.344 53.2773L158.367 55.1875H156.48C156.035 55.1875 155.648 55.2383 155.32 55.3398C154.992 55.4414 154.723 55.5859 154.512 55.7734C154.301 55.9531 154.145 56.1641 154.043 56.4062C153.949 56.6484 153.902 56.9141 153.902 57.2031C153.902 57.4922 153.969 57.7539 154.102 57.9883C154.234 58.2148 154.426 58.3945 154.676 58.5273C154.926 58.6523 155.219 58.7148 155.555 58.7148C156.062 58.7148 156.504 58.6133 156.879 58.4102C157.254 58.207 157.543 57.957 157.746 57.6602C157.957 57.3633 158.066 57.082 158.074 56.8164L158.965 58.2461C158.84 58.5664 158.668 58.8984 158.449 59.2422C158.238 59.5859 157.969 59.9102 157.641 60.2148C157.312 60.5117 156.918 60.7578 156.457 60.9531C155.996 61.1406 155.449 61.2344 154.816 61.2344C154.012 61.2344 153.281 61.0742 152.625 60.7539C151.977 60.4258 151.461 59.9766 151.078 59.4062C150.703 58.8281 150.516 58.1719 150.516 57.4375C150.516 56.7734 150.641 56.1836 150.891 55.668C151.141 55.1523 151.508 54.7188 151.992 54.3672C152.484 54.0078 153.098 53.7383 153.832 53.5586C154.566 53.3711 155.418 53.2773 156.387 53.2773H158.344Z" fill="#888888"/>
<path d="M108.516 110.961L115.617 84.875H124.828L113.32 119H107.367L108.516 110.961ZM102.07 84.875L109.172 110.961L110.367 119H104.344L92.9062 84.875H102.07ZM139.055 112.625V102.172C139.055 101.453 138.953 100.836 138.75 100.32C138.547 99.8047 138.227 99.4062 137.789 99.125C137.352 98.8281 136.766 98.6797 136.031 98.6797C135.438 98.6797 134.93 98.7812 134.508 98.9844C134.086 99.1875 133.766 99.4922 133.547 99.8984C133.328 100.305 133.219 100.82 133.219 101.445H125.32C125.32 100.273 125.578 99.1875 126.094 98.1875C126.625 97.1719 127.375 96.2891 128.344 95.5391C129.328 94.7891 130.5 94.2109 131.859 93.8047C133.234 93.3828 134.766 93.1719 136.453 93.1719C138.469 93.1719 140.266 93.5078 141.844 94.1797C143.438 94.8516 144.695 95.8594 145.617 97.2031C146.539 98.5312 147 100.203 147 102.219V112.602C147 114.258 147.094 115.516 147.281 116.375C147.469 117.219 147.734 117.961 148.078 118.602V119H140.156C139.781 118.219 139.5 117.266 139.312 116.141C139.141 115 139.055 113.828 139.055 112.625ZM140.016 103.508L140.062 107.727H136.57C135.836 107.727 135.211 107.828 134.695 108.031C134.195 108.234 133.789 108.516 133.477 108.875C133.18 109.219 132.961 109.609 132.82 110.047C132.695 110.484 132.633 110.945 132.633 111.43C132.633 111.898 132.742 112.32 132.961 112.695C133.195 113.055 133.508 113.336 133.898 113.539C134.289 113.742 134.727 113.844 135.211 113.844C136.086 113.844 136.828 113.68 137.438 113.352C138.062 113.008 138.539 112.594 138.867 112.109C139.195 111.625 139.359 111.172 139.359 110.75L141.094 113.984C140.781 114.609 140.422 115.242 140.016 115.883C139.625 116.523 139.133 117.117 138.539 117.664C137.961 118.195 137.25 118.633 136.406 118.977C135.562 119.305 134.539 119.469 133.336 119.469C131.773 119.469 130.336 119.148 129.023 118.508C127.727 117.867 126.688 116.977 125.906 115.836C125.125 114.68 124.734 113.352 124.734 111.852C124.734 110.539 124.969 109.367 125.438 108.336C125.922 107.305 126.648 106.43 127.617 105.711C128.586 104.992 129.82 104.445 131.32 104.07C132.82 103.695 134.586 103.508 136.617 103.508H140.016ZM159.727 83V119H151.805V83H159.727ZM172.945 93.6406V119H165.023V93.6406H172.945ZM164.555 87.1016C164.555 85.9766 164.961 85.0547 165.773 84.3359C166.586 83.6172 167.641 83.2578 168.938 83.2578C170.234 83.2578 171.289 83.6172 172.102 84.3359C172.914 85.0547 173.32 85.9766 173.32 87.1016C173.32 88.2266 172.914 89.1484 172.102 89.8672C171.289 90.5859 170.234 90.9453 168.938 90.9453C167.641 90.9453 166.586 90.5859 165.773 89.8672C164.961 89.1484 164.555 88.2266 164.555 87.1016ZM192.398 113.188V83H200.344V119H193.219L192.398 113.188ZM176.836 106.625V106.133C176.836 104.211 177.047 102.461 177.469 100.883C177.891 99.2891 178.516 97.9219 179.344 96.7812C180.172 95.625 181.203 94.7344 182.438 94.1094C183.672 93.4844 185.094 93.1719 186.703 93.1719C188.141 93.1719 189.398 93.5078 190.477 94.1797C191.555 94.8359 192.477 95.7578 193.242 96.9453C194.008 98.1328 194.633 99.5234 195.117 101.117C195.602 102.695 195.969 104.398 196.219 106.227V106.812C195.969 108.531 195.602 110.156 195.117 111.688C194.633 113.203 194.008 114.547 193.242 115.719C192.477 116.891 191.547 117.812 190.453 118.484C189.375 119.141 188.109 119.469 186.656 119.469C185.047 119.469 183.625 119.148 182.391 118.508C181.172 117.867 180.148 116.969 179.32 115.812C178.508 114.656 177.891 113.297 177.469 111.734C177.047 110.172 176.836 108.469 176.836 106.625ZM184.734 106.133V106.625C184.734 107.578 184.797 108.461 184.922 109.273C185.047 110.086 185.258 110.805 185.555 111.43C185.867 112.039 186.273 112.516 186.773 112.859C187.289 113.203 187.922 113.375 188.672 113.375C189.688 113.375 190.523 113.133 191.18 112.648C191.852 112.164 192.344 111.477 192.656 110.586C192.984 109.695 193.125 108.648 193.078 107.445V105.594C193.109 104.562 193.039 103.656 192.867 102.875C192.695 102.078 192.422 101.414 192.047 100.883C191.688 100.352 191.227 99.9531 190.664 99.6875C190.117 99.4062 189.469 99.2656 188.719 99.2656C187.984 99.2656 187.359 99.4375 186.844 99.7812C186.344 100.125 185.938 100.609 185.625 101.234C185.312 101.844 185.086 102.57 184.945 103.414C184.805 104.242 184.734 105.148 184.734 106.133ZM217.992 112.625V102.172C217.992 101.453 217.891 100.836 217.688 100.32C217.484 99.8047 217.164 99.4062 216.727 99.125C216.289 98.8281 215.703 98.6797 214.969 98.6797C214.375 98.6797 213.867 98.7812 213.445 98.9844C213.023 99.1875 212.703 99.4922 212.484 99.8984C212.266 100.305 212.156 100.82 212.156 101.445H204.258C204.258 100.273 204.516 99.1875 205.031 98.1875C205.562 97.1719 206.312 96.2891 207.281 95.5391C208.266 94.7891 209.438 94.2109 210.797 93.8047C212.172 93.3828 213.703 93.1719 215.391 93.1719C217.406 93.1719 219.203 93.5078 220.781 94.1797C222.375 94.8516 223.633 95.8594 224.555 97.2031C225.477 98.5312 225.938 100.203 225.938 102.219V112.602C225.938 114.258 226.031 115.516 226.219 116.375C226.406 117.219 226.672 117.961 227.016 118.602V119H219.094C218.719 118.219 218.438 117.266 218.25 116.141C218.078 115 217.992 113.828 217.992 112.625ZM218.953 103.508L219 107.727H215.508C214.773 107.727 214.148 107.828 213.633 108.031C213.133 108.234 212.727 108.516 212.414 108.875C212.117 109.219 211.898 109.609 211.758 110.047C211.633 110.484 211.57 110.945 211.57 111.43C211.57 111.898 211.68 112.32 211.898 112.695C212.133 113.055 212.445 113.336 212.836 113.539C213.227 113.742 213.664 113.844 214.148 113.844C215.023 113.844 215.766 113.68 216.375 113.352C217 113.008 217.477 112.594 217.805 112.109C218.133 111.625 218.297 111.172 218.297 110.75L220.031 113.984C219.719 114.609 219.359 115.242 218.953 115.883C218.562 116.523 218.07 117.117 217.477 117.664C216.898 118.195 216.188 118.633 215.344 118.977C214.5 119.305 213.477 119.469 212.273 119.469C210.711 119.469 209.273 119.148 207.961 118.508C206.664 117.867 205.625 116.977 204.844 115.836C204.062 114.68 203.672 113.352 203.672 111.852C203.672 110.539 203.906 109.367 204.375 108.336C204.859 107.305 205.586 106.43 206.555 105.711C207.523 104.992 208.758 104.445 210.258 104.07C211.758 103.695 213.523 103.508 215.555 103.508H218.953ZM243.68 93.6406V99.125H228.398V93.6406H243.68ZM231.609 87.3359H239.508V110.727C239.508 111.398 239.586 111.922 239.742 112.297C239.898 112.656 240.164 112.914 240.539 113.07C240.93 113.211 241.445 113.281 242.086 113.281C242.539 113.281 242.914 113.273 243.211 113.258C243.508 113.227 243.789 113.188 244.055 113.141V118.789C243.383 119.008 242.68 119.172 241.945 119.281C241.211 119.406 240.43 119.469 239.602 119.469C237.914 119.469 236.469 119.203 235.266 118.672C234.078 118.141 233.172 117.305 232.547 116.164C231.922 115.023 231.609 113.539 231.609 111.711V87.3359ZM255.164 93.6406V119H247.242V93.6406H255.164ZM246.773 87.1016C246.773 85.9766 247.18 85.0547 247.992 84.3359C248.805 83.6172 249.859 83.2578 251.156 83.2578C252.453 83.2578 253.508 83.6172 254.32 84.3359C255.133 85.0547 255.539 85.9766 255.539 87.1016C255.539 88.2266 255.133 89.1484 254.32 89.8672C253.508 90.5859 252.453 90.9453 251.156 90.9453C249.859 90.9453 248.805 90.5859 247.992 89.8672C247.18 89.1484 246.773 88.2266 246.773 87.1016ZM259.055 106.578V106.086C259.055 104.227 259.32 102.516 259.852 100.953C260.383 99.375 261.164 98.0078 262.195 96.8516C263.227 95.6953 264.5 94.7969 266.016 94.1562C267.531 93.5 269.281 93.1719 271.266 93.1719C273.266 93.1719 275.023 93.5 276.539 94.1562C278.07 94.7969 279.352 95.6953 280.383 96.8516C281.414 98.0078 282.195 99.375 282.727 100.953C283.258 102.516 283.523 104.227 283.523 106.086V106.578C283.523 108.422 283.258 110.133 282.727 111.711C282.195 113.273 281.414 114.641 280.383 115.812C279.352 116.969 278.078 117.867 276.562 118.508C275.047 119.148 273.297 119.469 271.312 119.469C269.328 119.469 267.57 119.148 266.039 118.508C264.508 117.867 263.227 116.969 262.195 115.812C261.164 114.641 260.383 113.273 259.852 111.711C259.32 110.133 259.055 108.422 259.055 106.578ZM266.953 106.086V106.578C266.953 107.531 267.023 108.422 267.164 109.25C267.305 110.078 267.539 110.805 267.867 111.43C268.195 112.039 268.641 112.516 269.203 112.859C269.766 113.203 270.469 113.375 271.312 113.375C272.141 113.375 272.828 113.203 273.375 112.859C273.938 112.516 274.383 112.039 274.711 111.43C275.039 110.805 275.273 110.078 275.414 109.25C275.555 108.422 275.625 107.531 275.625 106.578V106.086C275.625 105.164 275.555 104.297 275.414 103.484C275.273 102.656 275.039 101.93 274.711 101.305C274.383 100.664 273.938 100.164 273.375 99.8047C272.812 99.4453 272.109 99.2656 271.266 99.2656C270.438 99.2656 269.742 99.4453 269.18 99.8047C268.633 100.164 268.195 100.664 267.867 101.305C267.539 101.93 267.305 102.656 267.164 103.484C267.023 104.297 266.953 105.164 266.953 106.086ZM294.797 99.0547V119H286.898V93.6406H294.305L294.797 99.0547ZM293.859 105.453L292.008 105.5C292.008 103.562 292.242 101.836 292.711 100.32C293.18 98.7891 293.844 97.4922 294.703 96.4297C295.562 95.3672 296.586 94.5625 297.773 94.0156C298.977 93.4531 300.312 93.1719 301.781 93.1719C302.953 93.1719 304.023 93.3438 304.992 93.6875C305.977 94.0312 306.82 94.5859 307.523 95.3516C308.242 96.1172 308.789 97.1328 309.164 98.3984C309.555 99.6484 309.75 101.195 309.75 103.039V119H301.805V103.016C301.805 102 301.664 101.227 301.383 100.695C301.102 100.148 300.695 99.7734 300.164 99.5703C299.633 99.3672 298.984 99.2656 298.219 99.2656C297.406 99.2656 296.719 99.4219 296.156 99.7344C295.594 100.047 295.141 100.484 294.797 101.047C294.469 101.594 294.227 102.242 294.07 102.992C293.93 103.742 293.859 104.562 293.859 105.453ZM327.422 111.875C327.422 111.438 327.273 111.062 326.977 110.75C326.695 110.422 326.195 110.125 325.477 109.859C324.758 109.578 323.75 109.297 322.453 109.016C321.219 108.75 320.055 108.398 318.961 107.961C317.883 107.523 316.938 106.992 316.125 106.367C315.312 105.742 314.672 105 314.203 104.141C313.75 103.281 313.523 102.297 313.523 101.188C313.523 100.109 313.75 99.0938 314.203 98.1406C314.672 97.1719 315.352 96.3203 316.242 95.5859C317.148 94.8359 318.25 94.25 319.547 93.8281C320.844 93.3906 322.32 93.1719 323.977 93.1719C326.258 93.1719 328.227 93.5234 329.883 94.2266C331.539 94.9141 332.812 95.8828 333.703 97.1328C334.609 98.3672 335.062 99.7969 335.062 101.422H327.164C327.164 100.781 327.055 100.234 326.836 99.7812C326.633 99.3281 326.297 98.9844 325.828 98.75C325.359 98.5 324.734 98.375 323.953 98.375C323.406 98.375 322.906 98.4766 322.453 98.6797C322.016 98.8828 321.664 99.1641 321.398 99.5234C321.133 99.8828 321 100.305 321 100.789C321 101.133 321.078 101.445 321.234 101.727C321.406 101.992 321.664 102.242 322.008 102.477C322.352 102.695 322.789 102.898 323.32 103.086C323.852 103.258 324.492 103.414 325.242 103.555C326.945 103.867 328.539 104.312 330.023 104.891C331.508 105.469 332.711 106.289 333.633 107.352C334.57 108.414 335.039 109.844 335.039 111.641C335.039 112.766 334.781 113.805 334.266 114.758C333.75 115.695 333.008 116.523 332.039 117.242C331.07 117.945 329.906 118.492 328.547 118.883C327.188 119.273 325.656 119.469 323.953 119.469C321.531 119.469 319.484 119.039 317.812 118.18C316.141 117.305 314.875 116.211 314.016 114.898C313.172 113.57 312.75 112.227 312.75 110.867H320.109C320.141 111.648 320.328 112.289 320.672 112.789C321.031 113.289 321.508 113.656 322.102 113.891C322.695 114.125 323.383 114.242 324.164 114.242C324.883 114.242 325.477 114.141 325.945 113.938C326.43 113.734 326.797 113.461 327.047 113.117C327.297 112.758 327.422 112.344 327.422 111.875Z" fill="black"/>
<path d="M1134 0H1348C1356.28 0 1363 6.71573 1363 15V148C1363 156.284 1356.28 163 1348 163H1134V0Z" fill="#F65164"/>
<path d="M1210.62 43.625H1286.38V119.375H1210.62V43.625Z" fill="white" fill-opacity="0.01"/>
<path d="M1276.91 72.0312V105.172C1276.91 107.787 1274.79 109.906 1272.17 109.906H1224.83C1222.21 109.906 1220.09 107.787 1220.09 105.172V57.8281C1220.09 55.2134 1222.21 53.0938 1224.83 53.0938H1261.12" stroke="white" stroke-width="7.24" stroke-linecap="round" stroke-linejoin="round"/>
<path d="M1232.72 75.1875L1248.5 87.8125L1276.91 53.0938" stroke="white" stroke-width="7.24" stroke-linecap="round" stroke-linejoin="round"/>
</svg>
