<svg width="1363" height="163" viewBox="0 0 1363 163" fill="none" xmlns="http://www.w3.org/2000/svg">
<path d="M0 15C0 6.71573 6.71573 0 15 0H37V163H15C6.71573 163 0 156.284 0 148V15Z" fill="#424242"/>
<rect width="1097" height="163" transform="translate(37)" fill="#F0F0F0"/>
<path d="M98.0391 43.9375V61H94.5234V43.9375H98.0391ZM108.258 43.9375L101.496 52.3633L97.5938 56.5586L96.9609 53.2305L99.5977 49.6211L103.945 43.9375H108.258ZM104.262 61L99.2344 53.1133L101.836 50.9336L108.422 61H104.262ZM116.414 58.1406V52.4922C116.414 52.0859 116.348 51.7383 116.215 51.4492C116.082 51.1523 115.875 50.9219 115.594 50.7578C115.32 50.5938 114.965 50.5117 114.527 50.5117C114.152 50.5117 113.828 50.5781 113.555 50.7109C113.281 50.8359 113.07 51.0195 112.922 51.2617C112.773 51.4961 112.699 51.7734 112.699 52.0938H109.324C109.324 51.5547 109.449 51.043 109.699 50.5586C109.949 50.0742 110.312 49.6484 110.789 49.2812C111.266 48.9062 111.832 48.6133 112.488 48.4023C113.152 48.1914 113.895 48.0859 114.715 48.0859C115.699 48.0859 116.574 48.25 117.34 48.5781C118.105 48.9062 118.707 49.3984 119.145 50.0547C119.59 50.7109 119.812 51.5312 119.812 52.5156V57.9414C119.812 58.6367 119.855 59.207 119.941 59.6523C120.027 60.0898 120.152 60.4727 120.316 60.8008V61H116.906C116.742 60.6562 116.617 60.2266 116.531 59.7109C116.453 59.1875 116.414 58.6641 116.414 58.1406ZM116.859 53.2773L116.883 55.1875H114.996C114.551 55.1875 114.164 55.2383 113.836 55.3398C113.508 55.4414 113.238 55.5859 113.027 55.7734C112.816 55.9531 112.66 56.1641 112.559 56.4062C112.465 56.6484 112.418 56.9141 112.418 57.2031C112.418 57.4922 112.484 57.7539 112.617 57.9883C112.75 58.2148 112.941 58.3945 113.191 58.5273C113.441 58.6523 113.734 58.7148 114.07 58.7148C114.578 58.7148 115.02 58.6133 115.395 58.4102C115.77 58.207 116.059 57.957 116.262 57.6602C116.473 57.3633 116.582 57.082 116.59 56.8164L117.48 58.2461C117.355 58.5664 117.184 58.8984 116.965 59.2422C116.754 59.5859 116.484 59.9102 116.156 60.2148C115.828 60.5117 115.434 60.7578 114.973 60.9531C114.512 61.1406 113.965 61.2344 113.332 61.2344C112.527 61.2344 111.797 61.0742 111.141 60.7539C110.492 60.4258 109.977 59.9766 109.594 59.4062C109.219 58.8281 109.031 58.1719 109.031 57.4375C109.031 56.7734 109.156 56.1836 109.406 55.668C109.656 55.1523 110.023 54.7188 110.508 54.3672C111 54.0078 111.613 53.7383 112.348 53.5586C113.082 53.3711 113.934 53.2773 114.902 53.2773H116.859ZM125.789 51.0859V61H122.414V48.3203H125.59L125.789 51.0859ZM129.609 48.2383L129.551 51.3672C129.387 51.3438 129.188 51.3242 128.953 51.3086C128.727 51.2852 128.52 51.2734 128.332 51.2734C127.855 51.2734 127.441 51.3359 127.09 51.4609C126.746 51.5781 126.457 51.7539 126.223 51.9883C125.996 52.2227 125.824 52.5078 125.707 52.8438C125.598 53.1797 125.535 53.5625 125.52 53.9922L124.84 53.7812C124.84 52.9609 124.922 52.207 125.086 51.5195C125.25 50.8242 125.488 50.2188 125.801 49.7031C126.121 49.1875 126.512 48.7891 126.973 48.5078C127.434 48.2266 127.961 48.0859 128.555 48.0859C128.742 48.0859 128.934 48.1016 129.129 48.1328C129.324 48.1562 129.484 48.1914 129.609 48.2383ZM138.457 58.2344V43H141.855V61H138.797L138.457 58.2344ZM130.441 54.8125V54.5664C130.441 53.5977 130.551 52.7188 130.77 51.9297C130.988 51.1328 131.309 50.4492 131.73 49.8789C132.152 49.3086 132.672 48.8672 133.289 48.5547C133.906 48.2422 134.609 48.0859 135.398 48.0859C136.141 48.0859 136.789 48.2422 137.344 48.5547C137.906 48.8672 138.383 49.3125 138.773 49.8906C139.172 50.4609 139.492 51.1367 139.734 51.918C139.977 52.6914 140.152 53.5391 140.262 54.4609V55C140.152 55.8828 139.977 56.7031 139.734 57.4609C139.492 58.2188 139.172 58.8828 138.773 59.4531C138.383 60.0156 137.906 60.4531 137.344 60.7656C136.781 61.0781 136.125 61.2344 135.375 61.2344C134.586 61.2344 133.883 61.0742 133.266 60.7539C132.656 60.4336 132.141 59.9844 131.719 59.4062C131.305 58.8281 130.988 58.1484 130.77 57.3672C130.551 56.5859 130.441 55.7344 130.441 54.8125ZM133.816 54.5664V54.8125C133.816 55.3359 133.855 55.8242 133.934 56.2773C134.02 56.7305 134.156 57.1328 134.344 57.4844C134.539 57.8281 134.789 58.0977 135.094 58.293C135.406 58.4805 135.785 58.5742 136.23 58.5742C136.809 58.5742 137.285 58.4453 137.66 58.1875C138.035 57.9219 138.32 57.5586 138.516 57.0977C138.719 56.6367 138.836 56.1055 138.867 55.5039V53.9688C138.844 53.4766 138.773 53.0352 138.656 52.6445C138.547 52.2461 138.383 51.9062 138.164 51.625C137.953 51.3438 137.688 51.125 137.367 50.9688C137.055 50.8125 136.684 50.7344 136.254 50.7344C135.816 50.7344 135.441 50.8359 135.129 51.0391C134.816 51.2344 134.562 51.5039 134.367 51.8477C134.18 52.1914 134.039 52.5977 133.945 53.0664C133.859 53.5273 133.816 54.0273 133.816 54.5664ZM148.137 48.3203V61H144.75V48.3203H148.137ZM144.855 46.7852L147.152 43.1758H150.82L147.598 46.7852H144.855ZM157.898 58.1406V52.4922C157.898 52.0859 157.832 51.7383 157.699 51.4492C157.566 51.1523 157.359 50.9219 157.078 50.7578C156.805 50.5938 156.449 50.5117 156.012 50.5117C155.637 50.5117 155.312 50.5781 155.039 50.7109C154.766 50.8359 154.555 51.0195 154.406 51.2617C154.258 51.4961 154.184 51.7734 154.184 52.0938H150.809C150.809 51.5547 150.934 51.043 151.184 50.5586C151.434 50.0742 151.797 49.6484 152.273 49.2812C152.75 48.9062 153.316 48.6133 153.973 48.4023C154.637 48.1914 155.379 48.0859 156.199 48.0859C157.184 48.0859 158.059 48.25 158.824 48.5781C159.59 48.9062 160.191 49.3984 160.629 50.0547C161.074 50.7109 161.297 51.5312 161.297 52.5156V57.9414C161.297 58.6367 161.34 59.207 161.426 59.6523C161.512 60.0898 161.637 60.4727 161.801 60.8008V61H158.391C158.227 60.6562 158.102 60.2266 158.016 59.7109C157.938 59.1875 157.898 58.6641 157.898 58.1406ZM158.344 53.2773L158.367 55.1875H156.48C156.035 55.1875 155.648 55.2383 155.32 55.3398C154.992 55.4414 154.723 55.5859 154.512 55.7734C154.301 55.9531 154.145 56.1641 154.043 56.4062C153.949 56.6484 153.902 56.9141 153.902 57.2031C153.902 57.4922 153.969 57.7539 154.102 57.9883C154.234 58.2148 154.426 58.3945 154.676 58.5273C154.926 58.6523 155.219 58.7148 155.555 58.7148C156.062 58.7148 156.504 58.6133 156.879 58.4102C157.254 58.207 157.543 57.957 157.746 57.6602C157.957 57.3633 158.066 57.082 158.074 56.8164L158.965 58.2461C158.84 58.5664 158.668 58.8984 158.449 59.2422C158.238 59.5859 157.969 59.9102 157.641 60.2148C157.312 60.5117 156.918 60.7578 156.457 60.9531C155.996 61.1406 155.449 61.2344 154.816 61.2344C154.012 61.2344 153.281 61.0742 152.625 60.7539C151.977 60.4258 151.461 59.9766 151.078 59.4062C150.703 58.8281 150.516 58.1719 150.516 57.4375C150.516 56.7734 150.641 56.1836 150.891 55.668C151.141 55.1523 151.508 54.7188 151.992 54.3672C152.484 54.0078 153.098 53.7383 153.832 53.5586C154.566 53.3711 155.418 53.2773 156.387 53.2773H158.344Z" fill="#888888"/>
<path d="M114.117 84.875H122.344V107.164C122.344 109.82 121.789 112.07 120.68 113.914C119.57 115.742 118.016 117.125 116.016 118.062C114.016 119 111.664 119.469 108.961 119.469C106.289 119.469 103.938 119 101.906 118.062C99.8906 117.125 98.3125 115.742 97.1719 113.914C96.0469 112.07 95.4844 109.82 95.4844 107.164V84.875H103.734V107.164C103.734 108.57 103.938 109.719 104.344 110.609C104.75 111.484 105.344 112.125 106.125 112.531C106.906 112.938 107.852 113.141 108.961 113.141C110.086 113.141 111.031 112.938 111.797 112.531C112.562 112.125 113.141 111.484 113.531 110.609C113.922 109.719 114.117 108.57 114.117 107.164V84.875ZM136.266 84.875V119H128.062V84.875H136.266ZM172.523 84.875H180.75V107.164C180.75 109.82 180.195 112.07 179.086 113.914C177.977 115.742 176.422 117.125 174.422 118.062C172.422 119 170.07 119.469 167.367 119.469C164.695 119.469 162.344 119 160.312 118.062C158.297 117.125 156.719 115.742 155.578 113.914C154.453 112.07 153.891 109.82 153.891 107.164V84.875H162.141V107.164C162.141 108.57 162.344 109.719 162.75 110.609C163.156 111.484 163.75 112.125 164.531 112.531C165.312 112.938 166.258 113.141 167.367 113.141C168.492 113.141 169.438 112.938 170.203 112.531C170.969 112.125 171.547 111.484 171.938 110.609C172.328 109.719 172.523 108.57 172.523 107.164V84.875ZM193.078 84.875L198.656 96.2188L204.234 84.875H213.609L204.094 101.797L213.867 119H204.398L198.656 107.445L192.914 119H183.422L193.219 101.797L183.68 84.875H193.078Z" fill="black"/>
<path d="M1134 0H1348C1356.28 0 1363 6.71573 1363 15V148C1363 156.284 1356.28 163 1348 163H1134V0Z" fill="#F65164"/>
<path d="M1248.5 111.917C1244.51 111.917 1240.55 111.13 1236.86 109.601C1233.17 108.073 1229.82 105.832 1226.99 103.008C1221.29 97.3036 1218.08 89.567 1218.08 81.5C1218.08 73.433 1221.29 65.6964 1226.99 59.9922C1232.7 54.2879 1240.43 51.0833 1248.5 51.0833C1265.23 51.0833 1278.92 63.25 1278.92 78.4583C1278.92 83.2985 1276.99 87.9405 1273.57 91.363C1270.15 94.7856 1265.51 96.7083 1260.67 96.7083H1255.19C1254.28 96.7083 1253.67 97.3167 1253.67 98.2292C1253.67 98.5333 1253.97 98.8375 1253.97 99.1417C1255.19 100.662 1255.8 102.487 1255.8 104.312C1256.1 108.571 1252.76 111.917 1248.5 111.917ZM1248.5 57.1667C1242.05 57.1667 1235.86 59.7303 1231.29 64.2937C1226.73 68.8571 1224.17 75.0464 1224.17 81.5C1224.17 87.9536 1226.73 94.1429 1231.29 98.7063C1235.86 103.27 1242.05 105.833 1248.5 105.833C1249.41 105.833 1250.02 105.225 1250.02 104.312C1250.02 103.704 1249.72 103.4 1249.72 103.096C1248.5 101.575 1247.89 100.054 1247.89 98.2292C1247.89 93.9708 1251.24 90.625 1255.5 90.625H1260.67C1263.89 90.625 1266.99 89.3432 1269.27 87.0615C1271.55 84.7798 1272.83 81.6851 1272.83 78.4583C1272.83 66.5958 1261.88 57.1667 1248.5 57.1667ZM1231.77 75.4167C1234.2 75.4167 1236.33 77.5458 1236.33 79.9792C1236.33 82.4125 1234.2 84.5417 1231.77 84.5417C1229.34 84.5417 1227.21 82.4125 1227.21 79.9792C1227.21 77.5458 1229.34 75.4167 1231.77 75.4167ZM1240.9 63.25C1243.33 63.25 1245.46 65.3792 1245.46 67.8125C1245.46 70.2458 1243.33 72.375 1240.9 72.375C1238.46 72.375 1236.33 70.2458 1236.33 67.8125C1236.33 65.3792 1238.46 63.25 1240.9 63.25ZM1256.1 63.25C1258.54 63.25 1260.67 65.3792 1260.67 67.8125C1260.67 70.2458 1258.54 72.375 1256.1 72.375C1253.67 72.375 1251.54 70.2458 1251.54 67.8125C1251.54 65.3792 1253.67 63.25 1256.1 63.25ZM1265.23 75.4167C1267.66 75.4167 1269.79 77.5458 1269.79 79.9792C1269.79 82.4125 1267.66 84.5417 1265.23 84.5417C1262.8 84.5417 1260.67 82.4125 1260.67 79.9792C1260.67 77.5458 1262.8 75.4167 1265.23 75.4167Z" fill="white"/>
</svg>
